G04 MADE WITH FRITZING*
G04 WWW.FRITZING.ORG*
G04 DOUBLE SIDED*
G04 HOLES PLATED*
G04 CONTOUR ON CENTER OF CONTOUR VECTOR*
%ASAXBY*%
%FSLAX23Y23*%
%MOIN*%
%OFA0B0*%
%SFA1.0B1.0*%
%ADD10C,0.075333*%
%ADD11C,0.080000*%
%ADD12C,0.067278*%
%ADD13C,0.070000*%
%ADD14C,0.079370*%
%ADD15R,0.080000X0.080000*%
%ADD16R,0.070000X0.069972*%
%ADD17C,0.024000*%
%ADD18C,0.048000*%
%ADD19R,0.001000X0.001000*%
%LNCOPPER1*%
G90*
G70*
G54D10*
X1248Y1967D03*
X1248Y1867D03*
X1848Y1967D03*
X1848Y1867D03*
X1848Y1767D03*
X1848Y1667D03*
X1848Y1567D03*
X1848Y1467D03*
X1848Y1367D03*
X1848Y1267D03*
X1248Y1267D03*
X1248Y1367D03*
X1248Y1467D03*
X1248Y1567D03*
X1248Y1667D03*
X1248Y1767D03*
G54D11*
X2248Y267D03*
X2248Y167D03*
X2248Y2167D03*
X2248Y2067D03*
X2248Y1867D03*
X2248Y1767D03*
X2248Y1667D03*
X2248Y1567D03*
G54D12*
X248Y1367D03*
X348Y1367D03*
X448Y1367D03*
X548Y1367D03*
X248Y1267D03*
X348Y1267D03*
X448Y1267D03*
X548Y1267D03*
G54D13*
X1948Y967D03*
X1848Y967D03*
X1748Y967D03*
X1648Y967D03*
X1548Y967D03*
X1448Y967D03*
X1348Y967D03*
X1248Y967D03*
X1148Y967D03*
X1048Y967D03*
X948Y967D03*
X848Y967D03*
X748Y967D03*
X648Y967D03*
X548Y967D03*
X1948Y367D03*
X1848Y367D03*
X1748Y367D03*
X1648Y367D03*
X1548Y367D03*
X1448Y367D03*
X1348Y367D03*
X1248Y367D03*
X1148Y367D03*
X1048Y367D03*
X948Y367D03*
X848Y367D03*
X748Y367D03*
X648Y367D03*
X548Y367D03*
G54D14*
X248Y567D03*
X248Y667D03*
X248Y767D03*
X248Y867D03*
X248Y967D03*
X1548Y167D03*
X1448Y167D03*
X1348Y167D03*
X1248Y167D03*
X1148Y167D03*
G54D15*
X2248Y267D03*
X2248Y2167D03*
X2248Y1867D03*
G54D16*
X1948Y967D03*
G54D17*
X349Y1466D02*
X147Y1467D01*
D02*
X147Y167D02*
X948Y167D01*
D02*
X147Y1467D02*
X147Y167D01*
D02*
X948Y167D02*
X948Y338D01*
D02*
X348Y1395D02*
X349Y1466D01*
G54D18*
D02*
X2047Y2066D02*
X2206Y2067D01*
D02*
X2047Y1267D02*
X2047Y2066D01*
D02*
X1891Y1267D02*
X2047Y1267D01*
G54D17*
D02*
X348Y266D02*
X849Y266D01*
D02*
X849Y266D02*
X848Y338D01*
D02*
X348Y1239D02*
X348Y266D01*
D02*
X519Y367D02*
X447Y368D01*
D02*
X447Y368D02*
X448Y1239D01*
G54D19*
X1244Y1996D02*
X1251Y1996D01*
X1844Y1996D02*
X1851Y1996D01*
X1241Y1995D02*
X1254Y1995D01*
X1840Y1995D02*
X1854Y1995D01*
X1183Y1994D02*
X1235Y1994D01*
X1259Y1994D02*
X1312Y1994D01*
X1783Y1994D02*
X1835Y1994D01*
X1859Y1994D02*
X1912Y1994D01*
X1183Y1993D02*
X1233Y1993D01*
X1261Y1993D02*
X1312Y1993D01*
X1783Y1993D02*
X1833Y1993D01*
X1861Y1993D02*
X1912Y1993D01*
X1183Y1992D02*
X1231Y1992D01*
X1263Y1992D02*
X1312Y1992D01*
X1783Y1992D02*
X1831Y1992D01*
X1863Y1992D02*
X1912Y1992D01*
X1183Y1991D02*
X1230Y1991D01*
X1265Y1991D02*
X1312Y1991D01*
X1783Y1991D02*
X1830Y1991D01*
X1865Y1991D02*
X1912Y1991D01*
X1183Y1990D02*
X1228Y1990D01*
X1266Y1990D02*
X1312Y1990D01*
X1783Y1990D02*
X1828Y1990D01*
X1866Y1990D02*
X1912Y1990D01*
X1183Y1989D02*
X1227Y1989D01*
X1267Y1989D02*
X1312Y1989D01*
X1783Y1989D02*
X1827Y1989D01*
X1867Y1989D02*
X1912Y1989D01*
X1183Y1988D02*
X1226Y1988D01*
X1268Y1988D02*
X1312Y1988D01*
X1783Y1988D02*
X1826Y1988D01*
X1868Y1988D02*
X1912Y1988D01*
X1183Y1987D02*
X1225Y1987D01*
X1269Y1987D02*
X1312Y1987D01*
X1783Y1987D02*
X1825Y1987D01*
X1869Y1987D02*
X1912Y1987D01*
X1183Y1986D02*
X1224Y1986D01*
X1270Y1986D02*
X1312Y1986D01*
X1783Y1986D02*
X1824Y1986D01*
X1870Y1986D02*
X1912Y1986D01*
X1183Y1985D02*
X1223Y1985D01*
X1271Y1985D02*
X1312Y1985D01*
X1783Y1985D02*
X1823Y1985D01*
X1871Y1985D02*
X1912Y1985D01*
X1183Y1984D02*
X1223Y1984D01*
X1271Y1984D02*
X1312Y1984D01*
X1783Y1984D02*
X1823Y1984D01*
X1871Y1984D02*
X1912Y1984D01*
X1183Y1983D02*
X1222Y1983D01*
X1272Y1983D02*
X1312Y1983D01*
X1783Y1983D02*
X1822Y1983D01*
X1872Y1983D02*
X1912Y1983D01*
X1183Y1982D02*
X1222Y1982D01*
X1273Y1982D02*
X1312Y1982D01*
X1783Y1982D02*
X1821Y1982D01*
X1873Y1982D02*
X1912Y1982D01*
X1183Y1981D02*
X1221Y1981D01*
X1273Y1981D02*
X1312Y1981D01*
X1783Y1981D02*
X1821Y1981D01*
X1873Y1981D02*
X1912Y1981D01*
X1183Y1980D02*
X1221Y1980D01*
X1274Y1980D02*
X1312Y1980D01*
X1783Y1980D02*
X1820Y1980D01*
X1874Y1980D02*
X1912Y1980D01*
X1183Y1979D02*
X1220Y1979D01*
X1274Y1979D02*
X1312Y1979D01*
X1783Y1979D02*
X1820Y1979D01*
X1874Y1979D02*
X1912Y1979D01*
X1183Y1978D02*
X1220Y1978D01*
X1275Y1978D02*
X1312Y1978D01*
X1783Y1978D02*
X1820Y1978D01*
X1875Y1978D02*
X1912Y1978D01*
X1183Y1977D02*
X1219Y1977D01*
X1275Y1977D02*
X1312Y1977D01*
X1783Y1977D02*
X1819Y1977D01*
X1875Y1977D02*
X1912Y1977D01*
X1183Y1976D02*
X1219Y1976D01*
X1276Y1976D02*
X1312Y1976D01*
X1783Y1976D02*
X1819Y1976D01*
X1876Y1976D02*
X1912Y1976D01*
X1183Y1975D02*
X1219Y1975D01*
X1276Y1975D02*
X1312Y1975D01*
X1783Y1975D02*
X1819Y1975D01*
X1876Y1975D02*
X1912Y1975D01*
X1183Y1974D02*
X1218Y1974D01*
X1276Y1974D02*
X1312Y1974D01*
X1783Y1974D02*
X1818Y1974D01*
X1876Y1974D02*
X1912Y1974D01*
X1183Y1973D02*
X1218Y1973D01*
X1276Y1973D02*
X1312Y1973D01*
X1783Y1973D02*
X1818Y1973D01*
X1876Y1973D02*
X1912Y1973D01*
X1183Y1972D02*
X1218Y1972D01*
X1277Y1972D02*
X1312Y1972D01*
X1783Y1972D02*
X1818Y1972D01*
X1877Y1972D02*
X1912Y1972D01*
X1183Y1971D02*
X1218Y1971D01*
X1277Y1971D02*
X1312Y1971D01*
X1783Y1971D02*
X1818Y1971D01*
X1877Y1971D02*
X1912Y1971D01*
X1183Y1970D02*
X1218Y1970D01*
X1277Y1970D02*
X1312Y1970D01*
X1783Y1970D02*
X1818Y1970D01*
X1877Y1970D02*
X1912Y1970D01*
X1183Y1969D02*
X1218Y1969D01*
X1277Y1969D02*
X1312Y1969D01*
X1783Y1969D02*
X1818Y1969D01*
X1877Y1969D02*
X1912Y1969D01*
X1183Y1968D02*
X1218Y1968D01*
X1277Y1968D02*
X1312Y1968D01*
X1783Y1968D02*
X1818Y1968D01*
X1877Y1968D02*
X1912Y1968D01*
X1183Y1967D02*
X1218Y1967D01*
X1277Y1967D02*
X1312Y1967D01*
X1783Y1967D02*
X1818Y1967D01*
X1877Y1967D02*
X1912Y1967D01*
X1183Y1966D02*
X1218Y1966D01*
X1277Y1966D02*
X1312Y1966D01*
X1783Y1966D02*
X1818Y1966D01*
X1877Y1966D02*
X1912Y1966D01*
X1183Y1965D02*
X1218Y1965D01*
X1277Y1965D02*
X1312Y1965D01*
X1783Y1965D02*
X1818Y1965D01*
X1877Y1965D02*
X1912Y1965D01*
X1183Y1964D02*
X1218Y1964D01*
X1277Y1964D02*
X1312Y1964D01*
X1783Y1964D02*
X1818Y1964D01*
X1877Y1964D02*
X1912Y1964D01*
X1183Y1963D02*
X1218Y1963D01*
X1277Y1963D02*
X1312Y1963D01*
X1783Y1963D02*
X1818Y1963D01*
X1877Y1963D02*
X1912Y1963D01*
X1183Y1962D02*
X1218Y1962D01*
X1277Y1962D02*
X1312Y1962D01*
X1783Y1962D02*
X1818Y1962D01*
X1876Y1962D02*
X1912Y1962D01*
X1183Y1961D02*
X1218Y1961D01*
X1276Y1961D02*
X1312Y1961D01*
X1783Y1961D02*
X1818Y1961D01*
X1876Y1961D02*
X1912Y1961D01*
X1183Y1960D02*
X1219Y1960D01*
X1276Y1960D02*
X1312Y1960D01*
X1783Y1960D02*
X1819Y1960D01*
X1876Y1960D02*
X1912Y1960D01*
X1183Y1959D02*
X1219Y1959D01*
X1276Y1959D02*
X1312Y1959D01*
X1783Y1959D02*
X1819Y1959D01*
X1876Y1959D02*
X1912Y1959D01*
X1183Y1958D02*
X1219Y1958D01*
X1275Y1958D02*
X1312Y1958D01*
X1783Y1958D02*
X1819Y1958D01*
X1875Y1958D02*
X1912Y1958D01*
X1183Y1957D02*
X1220Y1957D01*
X1275Y1957D02*
X1312Y1957D01*
X1783Y1957D02*
X1820Y1957D01*
X1875Y1957D02*
X1912Y1957D01*
X1183Y1956D02*
X1220Y1956D01*
X1275Y1956D02*
X1312Y1956D01*
X1783Y1956D02*
X1820Y1956D01*
X1875Y1956D02*
X1912Y1956D01*
X1183Y1955D02*
X1220Y1955D01*
X1274Y1955D02*
X1312Y1955D01*
X1783Y1955D02*
X1820Y1955D01*
X1874Y1955D02*
X1912Y1955D01*
X1183Y1954D02*
X1221Y1954D01*
X1274Y1954D02*
X1312Y1954D01*
X1783Y1954D02*
X1821Y1954D01*
X1874Y1954D02*
X1912Y1954D01*
X1183Y1953D02*
X1221Y1953D01*
X1273Y1953D02*
X1312Y1953D01*
X1783Y1953D02*
X1821Y1953D01*
X1873Y1953D02*
X1912Y1953D01*
X1183Y1952D02*
X1222Y1952D01*
X1273Y1952D02*
X1312Y1952D01*
X1783Y1952D02*
X1822Y1952D01*
X1873Y1952D02*
X1912Y1952D01*
X1183Y1951D02*
X1223Y1951D01*
X1272Y1951D02*
X1312Y1951D01*
X1783Y1951D02*
X1823Y1951D01*
X1872Y1951D02*
X1912Y1951D01*
X1183Y1950D02*
X1224Y1950D01*
X1271Y1950D02*
X1312Y1950D01*
X1783Y1950D02*
X1823Y1950D01*
X1871Y1950D02*
X1912Y1950D01*
X1183Y1949D02*
X1224Y1949D01*
X1270Y1949D02*
X1312Y1949D01*
X1783Y1949D02*
X1824Y1949D01*
X1870Y1949D02*
X1912Y1949D01*
X1183Y1948D02*
X1225Y1948D01*
X1270Y1948D02*
X1312Y1948D01*
X1783Y1948D02*
X1825Y1948D01*
X1870Y1948D02*
X1912Y1948D01*
X1183Y1947D02*
X1226Y1947D01*
X1269Y1947D02*
X1312Y1947D01*
X1783Y1947D02*
X1826Y1947D01*
X1869Y1947D02*
X1912Y1947D01*
X1183Y1946D02*
X1227Y1946D01*
X1268Y1946D02*
X1312Y1946D01*
X1783Y1946D02*
X1827Y1946D01*
X1868Y1946D02*
X1912Y1946D01*
X1183Y1945D02*
X1228Y1945D01*
X1267Y1945D02*
X1312Y1945D01*
X1783Y1945D02*
X1828Y1945D01*
X1867Y1945D02*
X1912Y1945D01*
X1183Y1944D02*
X1229Y1944D01*
X1265Y1944D02*
X1312Y1944D01*
X1783Y1944D02*
X1829Y1944D01*
X1865Y1944D02*
X1912Y1944D01*
X1183Y1943D02*
X1231Y1943D01*
X1264Y1943D02*
X1312Y1943D01*
X1783Y1943D02*
X1831Y1943D01*
X1864Y1943D02*
X1912Y1943D01*
X1183Y1942D02*
X1232Y1942D01*
X1263Y1942D02*
X1312Y1942D01*
X1783Y1942D02*
X1832Y1942D01*
X1862Y1942D02*
X1912Y1942D01*
X1183Y1941D02*
X1234Y1941D01*
X1261Y1941D02*
X1312Y1941D01*
X1783Y1941D02*
X1834Y1941D01*
X1861Y1941D02*
X1912Y1941D01*
X1183Y1940D02*
X1236Y1940D01*
X1258Y1940D02*
X1312Y1940D01*
X1783Y1940D02*
X1836Y1940D01*
X1858Y1940D02*
X1912Y1940D01*
X1183Y1939D02*
X1239Y1939D01*
X1255Y1939D02*
X1312Y1939D01*
X1783Y1939D02*
X1839Y1939D01*
X1855Y1939D02*
X1912Y1939D01*
X1183Y1938D02*
X1242Y1938D01*
X1253Y1938D02*
X1312Y1938D01*
X1783Y1938D02*
X1842Y1938D01*
X1853Y1938D02*
X1912Y1938D01*
X1244Y1896D02*
X1251Y1896D01*
X1843Y1896D02*
X1851Y1896D01*
X1241Y1895D02*
X1254Y1895D01*
X1841Y1895D02*
X1854Y1895D01*
X1183Y1894D02*
X1235Y1894D01*
X1259Y1894D02*
X1312Y1894D01*
X1783Y1894D02*
X1835Y1894D01*
X1859Y1894D02*
X1912Y1894D01*
X1183Y1893D02*
X1233Y1893D01*
X1261Y1893D02*
X1312Y1893D01*
X1783Y1893D02*
X1833Y1893D01*
X1861Y1893D02*
X1912Y1893D01*
X1183Y1892D02*
X1231Y1892D01*
X1263Y1892D02*
X1312Y1892D01*
X1783Y1892D02*
X1831Y1892D01*
X1863Y1892D02*
X1912Y1892D01*
X1183Y1891D02*
X1230Y1891D01*
X1265Y1891D02*
X1312Y1891D01*
X1783Y1891D02*
X1830Y1891D01*
X1865Y1891D02*
X1912Y1891D01*
X1183Y1890D02*
X1228Y1890D01*
X1266Y1890D02*
X1312Y1890D01*
X1783Y1890D02*
X1828Y1890D01*
X1866Y1890D02*
X1912Y1890D01*
X1183Y1889D02*
X1227Y1889D01*
X1267Y1889D02*
X1312Y1889D01*
X1783Y1889D02*
X1827Y1889D01*
X1867Y1889D02*
X1912Y1889D01*
X1183Y1888D02*
X1226Y1888D01*
X1268Y1888D02*
X1312Y1888D01*
X1783Y1888D02*
X1826Y1888D01*
X1868Y1888D02*
X1912Y1888D01*
X1183Y1887D02*
X1225Y1887D01*
X1269Y1887D02*
X1312Y1887D01*
X1783Y1887D02*
X1825Y1887D01*
X1869Y1887D02*
X1912Y1887D01*
X1183Y1886D02*
X1224Y1886D01*
X1270Y1886D02*
X1312Y1886D01*
X1783Y1886D02*
X1824Y1886D01*
X1870Y1886D02*
X1912Y1886D01*
X1183Y1885D02*
X1223Y1885D01*
X1271Y1885D02*
X1312Y1885D01*
X1783Y1885D02*
X1823Y1885D01*
X1871Y1885D02*
X1912Y1885D01*
X1183Y1884D02*
X1223Y1884D01*
X1271Y1884D02*
X1312Y1884D01*
X1783Y1884D02*
X1823Y1884D01*
X1871Y1884D02*
X1912Y1884D01*
X1183Y1883D02*
X1222Y1883D01*
X1272Y1883D02*
X1312Y1883D01*
X1783Y1883D02*
X1822Y1883D01*
X1872Y1883D02*
X1912Y1883D01*
X1183Y1882D02*
X1222Y1882D01*
X1273Y1882D02*
X1312Y1882D01*
X1783Y1882D02*
X1821Y1882D01*
X1873Y1882D02*
X1912Y1882D01*
X1183Y1881D02*
X1221Y1881D01*
X1273Y1881D02*
X1312Y1881D01*
X1783Y1881D02*
X1821Y1881D01*
X1873Y1881D02*
X1912Y1881D01*
X1183Y1880D02*
X1221Y1880D01*
X1274Y1880D02*
X1312Y1880D01*
X1783Y1880D02*
X1820Y1880D01*
X1874Y1880D02*
X1912Y1880D01*
X1183Y1879D02*
X1220Y1879D01*
X1274Y1879D02*
X1312Y1879D01*
X1783Y1879D02*
X1820Y1879D01*
X1874Y1879D02*
X1912Y1879D01*
X1183Y1878D02*
X1220Y1878D01*
X1275Y1878D02*
X1312Y1878D01*
X1783Y1878D02*
X1820Y1878D01*
X1875Y1878D02*
X1912Y1878D01*
X1183Y1877D02*
X1219Y1877D01*
X1275Y1877D02*
X1312Y1877D01*
X1783Y1877D02*
X1819Y1877D01*
X1875Y1877D02*
X1912Y1877D01*
X1183Y1876D02*
X1219Y1876D01*
X1276Y1876D02*
X1312Y1876D01*
X1783Y1876D02*
X1819Y1876D01*
X1876Y1876D02*
X1912Y1876D01*
X1183Y1875D02*
X1219Y1875D01*
X1276Y1875D02*
X1312Y1875D01*
X1783Y1875D02*
X1819Y1875D01*
X1876Y1875D02*
X1912Y1875D01*
X1183Y1874D02*
X1218Y1874D01*
X1276Y1874D02*
X1312Y1874D01*
X1783Y1874D02*
X1818Y1874D01*
X1876Y1874D02*
X1912Y1874D01*
X1183Y1873D02*
X1218Y1873D01*
X1276Y1873D02*
X1312Y1873D01*
X1783Y1873D02*
X1818Y1873D01*
X1876Y1873D02*
X1912Y1873D01*
X1183Y1872D02*
X1218Y1872D01*
X1277Y1872D02*
X1312Y1872D01*
X1783Y1872D02*
X1818Y1872D01*
X1877Y1872D02*
X1912Y1872D01*
X1183Y1871D02*
X1218Y1871D01*
X1277Y1871D02*
X1312Y1871D01*
X1783Y1871D02*
X1818Y1871D01*
X1877Y1871D02*
X1912Y1871D01*
X1183Y1870D02*
X1218Y1870D01*
X1277Y1870D02*
X1312Y1870D01*
X1783Y1870D02*
X1818Y1870D01*
X1877Y1870D02*
X1912Y1870D01*
X1183Y1869D02*
X1218Y1869D01*
X1277Y1869D02*
X1312Y1869D01*
X1783Y1869D02*
X1818Y1869D01*
X1877Y1869D02*
X1912Y1869D01*
X1183Y1868D02*
X1218Y1868D01*
X1277Y1868D02*
X1312Y1868D01*
X1783Y1868D02*
X1818Y1868D01*
X1877Y1868D02*
X1912Y1868D01*
X1183Y1867D02*
X1218Y1867D01*
X1277Y1867D02*
X1312Y1867D01*
X1783Y1867D02*
X1818Y1867D01*
X1877Y1867D02*
X1912Y1867D01*
X1183Y1866D02*
X1218Y1866D01*
X1277Y1866D02*
X1312Y1866D01*
X1783Y1866D02*
X1818Y1866D01*
X1877Y1866D02*
X1912Y1866D01*
X1183Y1865D02*
X1218Y1865D01*
X1277Y1865D02*
X1312Y1865D01*
X1783Y1865D02*
X1818Y1865D01*
X1877Y1865D02*
X1912Y1865D01*
X1183Y1864D02*
X1218Y1864D01*
X1277Y1864D02*
X1312Y1864D01*
X1783Y1864D02*
X1818Y1864D01*
X1877Y1864D02*
X1912Y1864D01*
X1183Y1863D02*
X1218Y1863D01*
X1277Y1863D02*
X1312Y1863D01*
X1783Y1863D02*
X1818Y1863D01*
X1877Y1863D02*
X1912Y1863D01*
X1183Y1862D02*
X1218Y1862D01*
X1277Y1862D02*
X1312Y1862D01*
X1783Y1862D02*
X1818Y1862D01*
X1876Y1862D02*
X1912Y1862D01*
X1183Y1861D02*
X1218Y1861D01*
X1276Y1861D02*
X1312Y1861D01*
X1783Y1861D02*
X1818Y1861D01*
X1876Y1861D02*
X1912Y1861D01*
X1183Y1860D02*
X1219Y1860D01*
X1276Y1860D02*
X1312Y1860D01*
X1783Y1860D02*
X1819Y1860D01*
X1876Y1860D02*
X1912Y1860D01*
X1183Y1859D02*
X1219Y1859D01*
X1276Y1859D02*
X1312Y1859D01*
X1783Y1859D02*
X1819Y1859D01*
X1876Y1859D02*
X1912Y1859D01*
X1183Y1858D02*
X1219Y1858D01*
X1275Y1858D02*
X1312Y1858D01*
X1783Y1858D02*
X1819Y1858D01*
X1875Y1858D02*
X1912Y1858D01*
X1183Y1857D02*
X1220Y1857D01*
X1275Y1857D02*
X1312Y1857D01*
X1783Y1857D02*
X1820Y1857D01*
X1875Y1857D02*
X1912Y1857D01*
X1183Y1856D02*
X1220Y1856D01*
X1275Y1856D02*
X1312Y1856D01*
X1783Y1856D02*
X1820Y1856D01*
X1875Y1856D02*
X1912Y1856D01*
X1183Y1855D02*
X1220Y1855D01*
X1274Y1855D02*
X1312Y1855D01*
X1783Y1855D02*
X1820Y1855D01*
X1874Y1855D02*
X1912Y1855D01*
X1183Y1854D02*
X1221Y1854D01*
X1274Y1854D02*
X1312Y1854D01*
X1783Y1854D02*
X1821Y1854D01*
X1874Y1854D02*
X1912Y1854D01*
X1183Y1853D02*
X1221Y1853D01*
X1273Y1853D02*
X1312Y1853D01*
X1783Y1853D02*
X1821Y1853D01*
X1873Y1853D02*
X1912Y1853D01*
X1183Y1852D02*
X1222Y1852D01*
X1273Y1852D02*
X1312Y1852D01*
X1783Y1852D02*
X1822Y1852D01*
X1873Y1852D02*
X1912Y1852D01*
X1183Y1851D02*
X1223Y1851D01*
X1272Y1851D02*
X1312Y1851D01*
X1783Y1851D02*
X1823Y1851D01*
X1872Y1851D02*
X1912Y1851D01*
X1183Y1850D02*
X1224Y1850D01*
X1271Y1850D02*
X1312Y1850D01*
X1783Y1850D02*
X1823Y1850D01*
X1871Y1850D02*
X1912Y1850D01*
X1183Y1849D02*
X1224Y1849D01*
X1270Y1849D02*
X1312Y1849D01*
X1783Y1849D02*
X1824Y1849D01*
X1870Y1849D02*
X1912Y1849D01*
X1183Y1848D02*
X1225Y1848D01*
X1270Y1848D02*
X1312Y1848D01*
X1783Y1848D02*
X1825Y1848D01*
X1870Y1848D02*
X1912Y1848D01*
X1183Y1847D02*
X1226Y1847D01*
X1269Y1847D02*
X1312Y1847D01*
X1783Y1847D02*
X1826Y1847D01*
X1869Y1847D02*
X1912Y1847D01*
X1183Y1846D02*
X1227Y1846D01*
X1268Y1846D02*
X1312Y1846D01*
X1783Y1846D02*
X1827Y1846D01*
X1868Y1846D02*
X1912Y1846D01*
X1183Y1845D02*
X1228Y1845D01*
X1267Y1845D02*
X1312Y1845D01*
X1783Y1845D02*
X1828Y1845D01*
X1867Y1845D02*
X1912Y1845D01*
X1183Y1844D02*
X1229Y1844D01*
X1265Y1844D02*
X1312Y1844D01*
X1783Y1844D02*
X1829Y1844D01*
X1865Y1844D02*
X1912Y1844D01*
X1183Y1843D02*
X1231Y1843D01*
X1264Y1843D02*
X1312Y1843D01*
X1783Y1843D02*
X1831Y1843D01*
X1864Y1843D02*
X1912Y1843D01*
X1183Y1842D02*
X1232Y1842D01*
X1263Y1842D02*
X1312Y1842D01*
X1783Y1842D02*
X1832Y1842D01*
X1862Y1842D02*
X1912Y1842D01*
X1183Y1841D02*
X1234Y1841D01*
X1261Y1841D02*
X1312Y1841D01*
X1783Y1841D02*
X1834Y1841D01*
X1861Y1841D02*
X1912Y1841D01*
X1183Y1840D02*
X1236Y1840D01*
X1258Y1840D02*
X1312Y1840D01*
X1783Y1840D02*
X1836Y1840D01*
X1858Y1840D02*
X1912Y1840D01*
X1183Y1839D02*
X1239Y1839D01*
X1255Y1839D02*
X1312Y1839D01*
X1783Y1839D02*
X1839Y1839D01*
X1855Y1839D02*
X1912Y1839D01*
X1183Y1838D02*
X1241Y1838D01*
X1253Y1838D02*
X1312Y1838D01*
X1783Y1838D02*
X1841Y1838D01*
X1853Y1838D02*
X1912Y1838D01*
X1243Y1796D02*
X1251Y1796D01*
X1843Y1796D02*
X1851Y1796D01*
X1241Y1795D02*
X1254Y1795D01*
X1841Y1795D02*
X1854Y1795D01*
X1183Y1794D02*
X1235Y1794D01*
X1259Y1794D02*
X1312Y1794D01*
X1783Y1794D02*
X1835Y1794D01*
X1859Y1794D02*
X1912Y1794D01*
X1183Y1793D02*
X1233Y1793D01*
X1261Y1793D02*
X1312Y1793D01*
X1783Y1793D02*
X1833Y1793D01*
X1861Y1793D02*
X1912Y1793D01*
X1183Y1792D02*
X1231Y1792D01*
X1263Y1792D02*
X1312Y1792D01*
X1783Y1792D02*
X1831Y1792D01*
X1863Y1792D02*
X1912Y1792D01*
X1183Y1791D02*
X1230Y1791D01*
X1265Y1791D02*
X1312Y1791D01*
X1783Y1791D02*
X1830Y1791D01*
X1865Y1791D02*
X1912Y1791D01*
X1183Y1790D02*
X1228Y1790D01*
X1266Y1790D02*
X1312Y1790D01*
X1783Y1790D02*
X1828Y1790D01*
X1866Y1790D02*
X1912Y1790D01*
X1183Y1789D02*
X1227Y1789D01*
X1267Y1789D02*
X1312Y1789D01*
X1783Y1789D02*
X1827Y1789D01*
X1867Y1789D02*
X1912Y1789D01*
X1183Y1788D02*
X1226Y1788D01*
X1268Y1788D02*
X1312Y1788D01*
X1783Y1788D02*
X1826Y1788D01*
X1868Y1788D02*
X1912Y1788D01*
X1183Y1787D02*
X1225Y1787D01*
X1269Y1787D02*
X1312Y1787D01*
X1783Y1787D02*
X1825Y1787D01*
X1869Y1787D02*
X1912Y1787D01*
X1183Y1786D02*
X1224Y1786D01*
X1270Y1786D02*
X1312Y1786D01*
X1783Y1786D02*
X1824Y1786D01*
X1870Y1786D02*
X1912Y1786D01*
X1183Y1785D02*
X1223Y1785D01*
X1271Y1785D02*
X1312Y1785D01*
X1783Y1785D02*
X1823Y1785D01*
X1871Y1785D02*
X1912Y1785D01*
X1183Y1784D02*
X1223Y1784D01*
X1271Y1784D02*
X1312Y1784D01*
X1783Y1784D02*
X1823Y1784D01*
X1871Y1784D02*
X1912Y1784D01*
X1183Y1783D02*
X1222Y1783D01*
X1272Y1783D02*
X1312Y1783D01*
X1783Y1783D02*
X1822Y1783D01*
X1872Y1783D02*
X1912Y1783D01*
X1183Y1782D02*
X1222Y1782D01*
X1273Y1782D02*
X1312Y1782D01*
X1783Y1782D02*
X1821Y1782D01*
X1873Y1782D02*
X1912Y1782D01*
X1183Y1781D02*
X1221Y1781D01*
X1273Y1781D02*
X1312Y1781D01*
X1783Y1781D02*
X1821Y1781D01*
X1873Y1781D02*
X1912Y1781D01*
X1183Y1780D02*
X1221Y1780D01*
X1274Y1780D02*
X1312Y1780D01*
X1783Y1780D02*
X1820Y1780D01*
X1874Y1780D02*
X1912Y1780D01*
X1183Y1779D02*
X1220Y1779D01*
X1274Y1779D02*
X1312Y1779D01*
X1783Y1779D02*
X1820Y1779D01*
X1874Y1779D02*
X1912Y1779D01*
X1183Y1778D02*
X1220Y1778D01*
X1275Y1778D02*
X1312Y1778D01*
X1783Y1778D02*
X1820Y1778D01*
X1875Y1778D02*
X1912Y1778D01*
X1183Y1777D02*
X1219Y1777D01*
X1275Y1777D02*
X1312Y1777D01*
X1783Y1777D02*
X1819Y1777D01*
X1875Y1777D02*
X1912Y1777D01*
X1183Y1776D02*
X1219Y1776D01*
X1276Y1776D02*
X1312Y1776D01*
X1783Y1776D02*
X1819Y1776D01*
X1876Y1776D02*
X1912Y1776D01*
X1183Y1775D02*
X1219Y1775D01*
X1276Y1775D02*
X1312Y1775D01*
X1783Y1775D02*
X1819Y1775D01*
X1876Y1775D02*
X1912Y1775D01*
X1183Y1774D02*
X1218Y1774D01*
X1276Y1774D02*
X1312Y1774D01*
X1783Y1774D02*
X1818Y1774D01*
X1876Y1774D02*
X1912Y1774D01*
X1183Y1773D02*
X1218Y1773D01*
X1276Y1773D02*
X1312Y1773D01*
X1783Y1773D02*
X1818Y1773D01*
X1876Y1773D02*
X1912Y1773D01*
X1183Y1772D02*
X1218Y1772D01*
X1277Y1772D02*
X1312Y1772D01*
X1783Y1772D02*
X1818Y1772D01*
X1877Y1772D02*
X1912Y1772D01*
X1183Y1771D02*
X1218Y1771D01*
X1277Y1771D02*
X1312Y1771D01*
X1783Y1771D02*
X1818Y1771D01*
X1877Y1771D02*
X1912Y1771D01*
X1183Y1770D02*
X1218Y1770D01*
X1277Y1770D02*
X1312Y1770D01*
X1783Y1770D02*
X1818Y1770D01*
X1877Y1770D02*
X1912Y1770D01*
X1183Y1769D02*
X1218Y1769D01*
X1277Y1769D02*
X1312Y1769D01*
X1783Y1769D02*
X1818Y1769D01*
X1877Y1769D02*
X1912Y1769D01*
X1183Y1768D02*
X1218Y1768D01*
X1277Y1768D02*
X1312Y1768D01*
X1783Y1768D02*
X1818Y1768D01*
X1877Y1768D02*
X1912Y1768D01*
X1183Y1767D02*
X1218Y1767D01*
X1277Y1767D02*
X1312Y1767D01*
X1783Y1767D02*
X1818Y1767D01*
X1877Y1767D02*
X1912Y1767D01*
X1183Y1766D02*
X1218Y1766D01*
X1277Y1766D02*
X1312Y1766D01*
X1783Y1766D02*
X1818Y1766D01*
X1877Y1766D02*
X1912Y1766D01*
X1183Y1765D02*
X1218Y1765D01*
X1277Y1765D02*
X1312Y1765D01*
X1783Y1765D02*
X1818Y1765D01*
X1877Y1765D02*
X1912Y1765D01*
X1183Y1764D02*
X1218Y1764D01*
X1277Y1764D02*
X1312Y1764D01*
X1783Y1764D02*
X1818Y1764D01*
X1877Y1764D02*
X1912Y1764D01*
X1183Y1763D02*
X1218Y1763D01*
X1277Y1763D02*
X1312Y1763D01*
X1783Y1763D02*
X1818Y1763D01*
X1877Y1763D02*
X1912Y1763D01*
X1183Y1762D02*
X1218Y1762D01*
X1277Y1762D02*
X1312Y1762D01*
X1783Y1762D02*
X1818Y1762D01*
X1876Y1762D02*
X1912Y1762D01*
X1183Y1761D02*
X1218Y1761D01*
X1276Y1761D02*
X1312Y1761D01*
X1783Y1761D02*
X1818Y1761D01*
X1876Y1761D02*
X1912Y1761D01*
X1183Y1760D02*
X1219Y1760D01*
X1276Y1760D02*
X1312Y1760D01*
X1783Y1760D02*
X1819Y1760D01*
X1876Y1760D02*
X1912Y1760D01*
X1183Y1759D02*
X1219Y1759D01*
X1276Y1759D02*
X1312Y1759D01*
X1783Y1759D02*
X1819Y1759D01*
X1876Y1759D02*
X1912Y1759D01*
X1183Y1758D02*
X1219Y1758D01*
X1275Y1758D02*
X1312Y1758D01*
X1783Y1758D02*
X1819Y1758D01*
X1875Y1758D02*
X1912Y1758D01*
X1183Y1757D02*
X1220Y1757D01*
X1275Y1757D02*
X1312Y1757D01*
X1783Y1757D02*
X1820Y1757D01*
X1875Y1757D02*
X1912Y1757D01*
X1183Y1756D02*
X1220Y1756D01*
X1275Y1756D02*
X1312Y1756D01*
X1783Y1756D02*
X1820Y1756D01*
X1875Y1756D02*
X1912Y1756D01*
X1183Y1755D02*
X1220Y1755D01*
X1274Y1755D02*
X1312Y1755D01*
X1783Y1755D02*
X1820Y1755D01*
X1874Y1755D02*
X1912Y1755D01*
X1183Y1754D02*
X1221Y1754D01*
X1274Y1754D02*
X1312Y1754D01*
X1783Y1754D02*
X1821Y1754D01*
X1874Y1754D02*
X1912Y1754D01*
X1183Y1753D02*
X1222Y1753D01*
X1273Y1753D02*
X1312Y1753D01*
X1783Y1753D02*
X1821Y1753D01*
X1873Y1753D02*
X1912Y1753D01*
X1183Y1752D02*
X1222Y1752D01*
X1273Y1752D02*
X1312Y1752D01*
X1783Y1752D02*
X1822Y1752D01*
X1873Y1752D02*
X1912Y1752D01*
X1183Y1751D02*
X1223Y1751D01*
X1272Y1751D02*
X1312Y1751D01*
X1783Y1751D02*
X1823Y1751D01*
X1872Y1751D02*
X1912Y1751D01*
X1183Y1750D02*
X1224Y1750D01*
X1271Y1750D02*
X1312Y1750D01*
X1783Y1750D02*
X1823Y1750D01*
X1871Y1750D02*
X1912Y1750D01*
X1183Y1749D02*
X1224Y1749D01*
X1270Y1749D02*
X1312Y1749D01*
X1783Y1749D02*
X1824Y1749D01*
X1870Y1749D02*
X1912Y1749D01*
X1183Y1748D02*
X1225Y1748D01*
X1270Y1748D02*
X1312Y1748D01*
X1783Y1748D02*
X1825Y1748D01*
X1870Y1748D02*
X1912Y1748D01*
X1183Y1747D02*
X1226Y1747D01*
X1269Y1747D02*
X1312Y1747D01*
X1783Y1747D02*
X1826Y1747D01*
X1869Y1747D02*
X1912Y1747D01*
X1183Y1746D02*
X1227Y1746D01*
X1268Y1746D02*
X1312Y1746D01*
X1783Y1746D02*
X1827Y1746D01*
X1868Y1746D02*
X1912Y1746D01*
X1183Y1745D02*
X1228Y1745D01*
X1267Y1745D02*
X1312Y1745D01*
X1783Y1745D02*
X1828Y1745D01*
X1867Y1745D02*
X1912Y1745D01*
X1183Y1744D02*
X1229Y1744D01*
X1265Y1744D02*
X1312Y1744D01*
X1783Y1744D02*
X1829Y1744D01*
X1865Y1744D02*
X1912Y1744D01*
X1183Y1743D02*
X1231Y1743D01*
X1264Y1743D02*
X1312Y1743D01*
X1783Y1743D02*
X1831Y1743D01*
X1864Y1743D02*
X1912Y1743D01*
X1183Y1742D02*
X1232Y1742D01*
X1263Y1742D02*
X1312Y1742D01*
X1783Y1742D02*
X1832Y1742D01*
X1862Y1742D02*
X1912Y1742D01*
X1183Y1741D02*
X1234Y1741D01*
X1261Y1741D02*
X1312Y1741D01*
X1783Y1741D02*
X1834Y1741D01*
X1861Y1741D02*
X1912Y1741D01*
X1183Y1740D02*
X1236Y1740D01*
X1258Y1740D02*
X1312Y1740D01*
X1783Y1740D02*
X1836Y1740D01*
X1858Y1740D02*
X1912Y1740D01*
X1183Y1739D02*
X1239Y1739D01*
X1255Y1739D02*
X1312Y1739D01*
X1783Y1739D02*
X1839Y1739D01*
X1855Y1739D02*
X1912Y1739D01*
X1183Y1738D02*
X1241Y1738D01*
X1253Y1738D02*
X1312Y1738D01*
X1783Y1738D02*
X1841Y1738D01*
X1853Y1738D02*
X1912Y1738D01*
X1243Y1696D02*
X1251Y1696D01*
X1843Y1696D02*
X1851Y1696D01*
X1241Y1695D02*
X1254Y1695D01*
X1841Y1695D02*
X1854Y1695D01*
X1183Y1694D02*
X1235Y1694D01*
X1259Y1694D02*
X1312Y1694D01*
X1783Y1694D02*
X1835Y1694D01*
X1859Y1694D02*
X1912Y1694D01*
X1183Y1693D02*
X1233Y1693D01*
X1261Y1693D02*
X1312Y1693D01*
X1783Y1693D02*
X1833Y1693D01*
X1861Y1693D02*
X1912Y1693D01*
X1183Y1692D02*
X1231Y1692D01*
X1263Y1692D02*
X1312Y1692D01*
X1783Y1692D02*
X1831Y1692D01*
X1863Y1692D02*
X1912Y1692D01*
X1183Y1691D02*
X1230Y1691D01*
X1265Y1691D02*
X1312Y1691D01*
X1783Y1691D02*
X1830Y1691D01*
X1865Y1691D02*
X1912Y1691D01*
X1183Y1690D02*
X1228Y1690D01*
X1266Y1690D02*
X1312Y1690D01*
X1783Y1690D02*
X1828Y1690D01*
X1866Y1690D02*
X1912Y1690D01*
X1183Y1689D02*
X1227Y1689D01*
X1267Y1689D02*
X1312Y1689D01*
X1783Y1689D02*
X1827Y1689D01*
X1867Y1689D02*
X1912Y1689D01*
X1183Y1688D02*
X1226Y1688D01*
X1268Y1688D02*
X1312Y1688D01*
X1783Y1688D02*
X1826Y1688D01*
X1868Y1688D02*
X1912Y1688D01*
X1183Y1687D02*
X1225Y1687D01*
X1269Y1687D02*
X1312Y1687D01*
X1783Y1687D02*
X1825Y1687D01*
X1869Y1687D02*
X1912Y1687D01*
X1183Y1686D02*
X1224Y1686D01*
X1270Y1686D02*
X1312Y1686D01*
X1783Y1686D02*
X1824Y1686D01*
X1870Y1686D02*
X1912Y1686D01*
X1183Y1685D02*
X1223Y1685D01*
X1271Y1685D02*
X1312Y1685D01*
X1783Y1685D02*
X1823Y1685D01*
X1871Y1685D02*
X1912Y1685D01*
X1183Y1684D02*
X1223Y1684D01*
X1271Y1684D02*
X1312Y1684D01*
X1783Y1684D02*
X1823Y1684D01*
X1871Y1684D02*
X1912Y1684D01*
X1183Y1683D02*
X1222Y1683D01*
X1272Y1683D02*
X1312Y1683D01*
X1783Y1683D02*
X1822Y1683D01*
X1872Y1683D02*
X1912Y1683D01*
X1183Y1682D02*
X1222Y1682D01*
X1273Y1682D02*
X1312Y1682D01*
X1783Y1682D02*
X1821Y1682D01*
X1873Y1682D02*
X1912Y1682D01*
X1183Y1681D02*
X1221Y1681D01*
X1273Y1681D02*
X1312Y1681D01*
X1783Y1681D02*
X1821Y1681D01*
X1873Y1681D02*
X1912Y1681D01*
X1183Y1680D02*
X1221Y1680D01*
X1274Y1680D02*
X1312Y1680D01*
X1783Y1680D02*
X1820Y1680D01*
X1874Y1680D02*
X1912Y1680D01*
X1183Y1679D02*
X1220Y1679D01*
X1274Y1679D02*
X1312Y1679D01*
X1783Y1679D02*
X1820Y1679D01*
X1874Y1679D02*
X1912Y1679D01*
X1183Y1678D02*
X1220Y1678D01*
X1275Y1678D02*
X1312Y1678D01*
X1783Y1678D02*
X1820Y1678D01*
X1875Y1678D02*
X1912Y1678D01*
X1183Y1677D02*
X1219Y1677D01*
X1275Y1677D02*
X1312Y1677D01*
X1783Y1677D02*
X1819Y1677D01*
X1875Y1677D02*
X1912Y1677D01*
X1183Y1676D02*
X1219Y1676D01*
X1276Y1676D02*
X1312Y1676D01*
X1783Y1676D02*
X1819Y1676D01*
X1876Y1676D02*
X1912Y1676D01*
X1183Y1675D02*
X1219Y1675D01*
X1276Y1675D02*
X1312Y1675D01*
X1783Y1675D02*
X1819Y1675D01*
X1876Y1675D02*
X1912Y1675D01*
X1183Y1674D02*
X1218Y1674D01*
X1276Y1674D02*
X1312Y1674D01*
X1783Y1674D02*
X1818Y1674D01*
X1876Y1674D02*
X1912Y1674D01*
X1183Y1673D02*
X1218Y1673D01*
X1276Y1673D02*
X1312Y1673D01*
X1783Y1673D02*
X1818Y1673D01*
X1876Y1673D02*
X1912Y1673D01*
X1183Y1672D02*
X1218Y1672D01*
X1277Y1672D02*
X1312Y1672D01*
X1783Y1672D02*
X1818Y1672D01*
X1877Y1672D02*
X1912Y1672D01*
X1183Y1671D02*
X1218Y1671D01*
X1277Y1671D02*
X1312Y1671D01*
X1783Y1671D02*
X1818Y1671D01*
X1877Y1671D02*
X1912Y1671D01*
X1183Y1670D02*
X1218Y1670D01*
X1277Y1670D02*
X1312Y1670D01*
X1783Y1670D02*
X1818Y1670D01*
X1877Y1670D02*
X1912Y1670D01*
X1183Y1669D02*
X1218Y1669D01*
X1277Y1669D02*
X1312Y1669D01*
X1783Y1669D02*
X1818Y1669D01*
X1877Y1669D02*
X1912Y1669D01*
X1183Y1668D02*
X1218Y1668D01*
X1277Y1668D02*
X1312Y1668D01*
X1783Y1668D02*
X1818Y1668D01*
X1877Y1668D02*
X1912Y1668D01*
X1183Y1667D02*
X1218Y1667D01*
X1277Y1667D02*
X1312Y1667D01*
X1783Y1667D02*
X1818Y1667D01*
X1877Y1667D02*
X1912Y1667D01*
X1183Y1666D02*
X1218Y1666D01*
X1277Y1666D02*
X1312Y1666D01*
X1783Y1666D02*
X1818Y1666D01*
X1877Y1666D02*
X1912Y1666D01*
X1183Y1665D02*
X1218Y1665D01*
X1277Y1665D02*
X1312Y1665D01*
X1783Y1665D02*
X1818Y1665D01*
X1877Y1665D02*
X1912Y1665D01*
X1183Y1664D02*
X1218Y1664D01*
X1277Y1664D02*
X1312Y1664D01*
X1783Y1664D02*
X1818Y1664D01*
X1877Y1664D02*
X1912Y1664D01*
X1183Y1663D02*
X1218Y1663D01*
X1277Y1663D02*
X1312Y1663D01*
X1783Y1663D02*
X1818Y1663D01*
X1877Y1663D02*
X1912Y1663D01*
X1183Y1662D02*
X1218Y1662D01*
X1277Y1662D02*
X1312Y1662D01*
X1783Y1662D02*
X1818Y1662D01*
X1876Y1662D02*
X1912Y1662D01*
X1183Y1661D02*
X1218Y1661D01*
X1276Y1661D02*
X1312Y1661D01*
X1783Y1661D02*
X1818Y1661D01*
X1876Y1661D02*
X1912Y1661D01*
X1183Y1660D02*
X1219Y1660D01*
X1276Y1660D02*
X1312Y1660D01*
X1783Y1660D02*
X1819Y1660D01*
X1876Y1660D02*
X1912Y1660D01*
X1183Y1659D02*
X1219Y1659D01*
X1276Y1659D02*
X1312Y1659D01*
X1783Y1659D02*
X1819Y1659D01*
X1876Y1659D02*
X1912Y1659D01*
X1183Y1658D02*
X1219Y1658D01*
X1275Y1658D02*
X1312Y1658D01*
X1783Y1658D02*
X1819Y1658D01*
X1875Y1658D02*
X1912Y1658D01*
X1183Y1657D02*
X1220Y1657D01*
X1275Y1657D02*
X1312Y1657D01*
X1783Y1657D02*
X1820Y1657D01*
X1875Y1657D02*
X1912Y1657D01*
X1183Y1656D02*
X1220Y1656D01*
X1275Y1656D02*
X1312Y1656D01*
X1783Y1656D02*
X1820Y1656D01*
X1875Y1656D02*
X1912Y1656D01*
X1183Y1655D02*
X1220Y1655D01*
X1274Y1655D02*
X1312Y1655D01*
X1783Y1655D02*
X1820Y1655D01*
X1874Y1655D02*
X1912Y1655D01*
X1183Y1654D02*
X1221Y1654D01*
X1274Y1654D02*
X1312Y1654D01*
X1783Y1654D02*
X1821Y1654D01*
X1874Y1654D02*
X1912Y1654D01*
X1183Y1653D02*
X1222Y1653D01*
X1273Y1653D02*
X1312Y1653D01*
X1783Y1653D02*
X1821Y1653D01*
X1873Y1653D02*
X1912Y1653D01*
X1183Y1652D02*
X1222Y1652D01*
X1273Y1652D02*
X1312Y1652D01*
X1783Y1652D02*
X1822Y1652D01*
X1873Y1652D02*
X1912Y1652D01*
X1183Y1651D02*
X1223Y1651D01*
X1272Y1651D02*
X1312Y1651D01*
X1783Y1651D02*
X1823Y1651D01*
X1872Y1651D02*
X1912Y1651D01*
X1183Y1650D02*
X1224Y1650D01*
X1271Y1650D02*
X1312Y1650D01*
X1783Y1650D02*
X1823Y1650D01*
X1871Y1650D02*
X1912Y1650D01*
X1183Y1649D02*
X1224Y1649D01*
X1270Y1649D02*
X1312Y1649D01*
X1783Y1649D02*
X1824Y1649D01*
X1870Y1649D02*
X1912Y1649D01*
X1183Y1648D02*
X1225Y1648D01*
X1270Y1648D02*
X1312Y1648D01*
X1783Y1648D02*
X1825Y1648D01*
X1870Y1648D02*
X1912Y1648D01*
X1183Y1647D02*
X1226Y1647D01*
X1269Y1647D02*
X1312Y1647D01*
X1783Y1647D02*
X1826Y1647D01*
X1869Y1647D02*
X1912Y1647D01*
X1183Y1646D02*
X1227Y1646D01*
X1268Y1646D02*
X1312Y1646D01*
X1783Y1646D02*
X1827Y1646D01*
X1868Y1646D02*
X1912Y1646D01*
X1183Y1645D02*
X1228Y1645D01*
X1267Y1645D02*
X1312Y1645D01*
X1783Y1645D02*
X1828Y1645D01*
X1867Y1645D02*
X1912Y1645D01*
X1183Y1644D02*
X1229Y1644D01*
X1265Y1644D02*
X1312Y1644D01*
X1783Y1644D02*
X1829Y1644D01*
X1865Y1644D02*
X1912Y1644D01*
X1183Y1643D02*
X1231Y1643D01*
X1264Y1643D02*
X1312Y1643D01*
X1783Y1643D02*
X1831Y1643D01*
X1864Y1643D02*
X1912Y1643D01*
X1183Y1642D02*
X1232Y1642D01*
X1262Y1642D02*
X1312Y1642D01*
X1783Y1642D02*
X1832Y1642D01*
X1862Y1642D02*
X1912Y1642D01*
X1183Y1641D02*
X1234Y1641D01*
X1261Y1641D02*
X1312Y1641D01*
X1783Y1641D02*
X1834Y1641D01*
X1861Y1641D02*
X1912Y1641D01*
X1183Y1640D02*
X1236Y1640D01*
X1258Y1640D02*
X1312Y1640D01*
X1783Y1640D02*
X1836Y1640D01*
X1858Y1640D02*
X1912Y1640D01*
X1183Y1639D02*
X1239Y1639D01*
X1255Y1639D02*
X1312Y1639D01*
X1783Y1639D02*
X1839Y1639D01*
X1855Y1639D02*
X1912Y1639D01*
X1243Y1596D02*
X1251Y1596D01*
X1843Y1596D02*
X1851Y1596D01*
X1241Y1595D02*
X1254Y1595D01*
X1841Y1595D02*
X1854Y1595D01*
X1183Y1594D02*
X1235Y1594D01*
X1259Y1594D02*
X1312Y1594D01*
X1783Y1594D02*
X1835Y1594D01*
X1859Y1594D02*
X1912Y1594D01*
X1183Y1593D02*
X1233Y1593D01*
X1261Y1593D02*
X1312Y1593D01*
X1783Y1593D02*
X1833Y1593D01*
X1861Y1593D02*
X1912Y1593D01*
X1183Y1592D02*
X1231Y1592D01*
X1263Y1592D02*
X1312Y1592D01*
X1783Y1592D02*
X1831Y1592D01*
X1863Y1592D02*
X1912Y1592D01*
X1183Y1591D02*
X1230Y1591D01*
X1265Y1591D02*
X1312Y1591D01*
X1783Y1591D02*
X1830Y1591D01*
X1865Y1591D02*
X1912Y1591D01*
X1183Y1590D02*
X1228Y1590D01*
X1266Y1590D02*
X1312Y1590D01*
X1783Y1590D02*
X1828Y1590D01*
X1866Y1590D02*
X1912Y1590D01*
X1183Y1589D02*
X1227Y1589D01*
X1267Y1589D02*
X1312Y1589D01*
X1783Y1589D02*
X1827Y1589D01*
X1867Y1589D02*
X1912Y1589D01*
X1183Y1588D02*
X1226Y1588D01*
X1268Y1588D02*
X1312Y1588D01*
X1783Y1588D02*
X1826Y1588D01*
X1868Y1588D02*
X1912Y1588D01*
X1183Y1587D02*
X1225Y1587D01*
X1269Y1587D02*
X1312Y1587D01*
X1783Y1587D02*
X1825Y1587D01*
X1869Y1587D02*
X1912Y1587D01*
X1183Y1586D02*
X1224Y1586D01*
X1270Y1586D02*
X1312Y1586D01*
X1783Y1586D02*
X1824Y1586D01*
X1870Y1586D02*
X1912Y1586D01*
X1183Y1585D02*
X1223Y1585D01*
X1271Y1585D02*
X1312Y1585D01*
X1783Y1585D02*
X1823Y1585D01*
X1871Y1585D02*
X1912Y1585D01*
X1183Y1584D02*
X1223Y1584D01*
X1271Y1584D02*
X1312Y1584D01*
X1783Y1584D02*
X1823Y1584D01*
X1871Y1584D02*
X1912Y1584D01*
X1183Y1583D02*
X1222Y1583D01*
X1272Y1583D02*
X1312Y1583D01*
X1783Y1583D02*
X1822Y1583D01*
X1872Y1583D02*
X1912Y1583D01*
X1183Y1582D02*
X1222Y1582D01*
X1273Y1582D02*
X1312Y1582D01*
X1783Y1582D02*
X1821Y1582D01*
X1873Y1582D02*
X1912Y1582D01*
X1183Y1581D02*
X1221Y1581D01*
X1273Y1581D02*
X1312Y1581D01*
X1783Y1581D02*
X1821Y1581D01*
X1873Y1581D02*
X1912Y1581D01*
X1183Y1580D02*
X1220Y1580D01*
X1274Y1580D02*
X1312Y1580D01*
X1783Y1580D02*
X1820Y1580D01*
X1874Y1580D02*
X1912Y1580D01*
X1183Y1579D02*
X1220Y1579D01*
X1274Y1579D02*
X1312Y1579D01*
X1783Y1579D02*
X1820Y1579D01*
X1874Y1579D02*
X1912Y1579D01*
X1183Y1578D02*
X1220Y1578D01*
X1275Y1578D02*
X1312Y1578D01*
X1783Y1578D02*
X1820Y1578D01*
X1875Y1578D02*
X1912Y1578D01*
X1183Y1577D02*
X1219Y1577D01*
X1275Y1577D02*
X1312Y1577D01*
X1783Y1577D02*
X1819Y1577D01*
X1875Y1577D02*
X1912Y1577D01*
X1183Y1576D02*
X1219Y1576D01*
X1276Y1576D02*
X1312Y1576D01*
X1783Y1576D02*
X1819Y1576D01*
X1876Y1576D02*
X1912Y1576D01*
X1183Y1575D02*
X1219Y1575D01*
X1276Y1575D02*
X1312Y1575D01*
X1783Y1575D02*
X1819Y1575D01*
X1876Y1575D02*
X1912Y1575D01*
X1183Y1574D02*
X1218Y1574D01*
X1276Y1574D02*
X1312Y1574D01*
X1783Y1574D02*
X1818Y1574D01*
X1876Y1574D02*
X1912Y1574D01*
X1183Y1573D02*
X1218Y1573D01*
X1276Y1573D02*
X1312Y1573D01*
X1783Y1573D02*
X1818Y1573D01*
X1876Y1573D02*
X1912Y1573D01*
X1183Y1572D02*
X1218Y1572D01*
X1277Y1572D02*
X1312Y1572D01*
X1783Y1572D02*
X1818Y1572D01*
X1877Y1572D02*
X1912Y1572D01*
X1183Y1571D02*
X1218Y1571D01*
X1277Y1571D02*
X1312Y1571D01*
X1783Y1571D02*
X1818Y1571D01*
X1877Y1571D02*
X1912Y1571D01*
X1183Y1570D02*
X1218Y1570D01*
X1277Y1570D02*
X1312Y1570D01*
X1783Y1570D02*
X1818Y1570D01*
X1877Y1570D02*
X1912Y1570D01*
X1183Y1569D02*
X1218Y1569D01*
X1277Y1569D02*
X1312Y1569D01*
X1783Y1569D02*
X1818Y1569D01*
X1877Y1569D02*
X1912Y1569D01*
X1183Y1568D02*
X1218Y1568D01*
X1277Y1568D02*
X1312Y1568D01*
X1783Y1568D02*
X1818Y1568D01*
X1877Y1568D02*
X1912Y1568D01*
X1183Y1567D02*
X1218Y1567D01*
X1277Y1567D02*
X1312Y1567D01*
X1783Y1567D02*
X1818Y1567D01*
X1877Y1567D02*
X1912Y1567D01*
X1183Y1566D02*
X1218Y1566D01*
X1277Y1566D02*
X1312Y1566D01*
X1783Y1566D02*
X1818Y1566D01*
X1877Y1566D02*
X1912Y1566D01*
X1183Y1565D02*
X1218Y1565D01*
X1277Y1565D02*
X1312Y1565D01*
X1783Y1565D02*
X1818Y1565D01*
X1877Y1565D02*
X1912Y1565D01*
X1183Y1564D02*
X1218Y1564D01*
X1277Y1564D02*
X1312Y1564D01*
X1783Y1564D02*
X1818Y1564D01*
X1877Y1564D02*
X1912Y1564D01*
X1183Y1563D02*
X1218Y1563D01*
X1277Y1563D02*
X1312Y1563D01*
X1783Y1563D02*
X1818Y1563D01*
X1877Y1563D02*
X1912Y1563D01*
X1183Y1562D02*
X1218Y1562D01*
X1277Y1562D02*
X1312Y1562D01*
X1783Y1562D02*
X1818Y1562D01*
X1876Y1562D02*
X1912Y1562D01*
X1183Y1561D02*
X1218Y1561D01*
X1276Y1561D02*
X1312Y1561D01*
X1783Y1561D02*
X1818Y1561D01*
X1876Y1561D02*
X1912Y1561D01*
X1183Y1560D02*
X1219Y1560D01*
X1276Y1560D02*
X1312Y1560D01*
X1783Y1560D02*
X1819Y1560D01*
X1876Y1560D02*
X1912Y1560D01*
X1183Y1559D02*
X1219Y1559D01*
X1276Y1559D02*
X1312Y1559D01*
X1783Y1559D02*
X1819Y1559D01*
X1876Y1559D02*
X1912Y1559D01*
X1183Y1558D02*
X1219Y1558D01*
X1275Y1558D02*
X1312Y1558D01*
X1783Y1558D02*
X1819Y1558D01*
X1875Y1558D02*
X1912Y1558D01*
X1183Y1557D02*
X1220Y1557D01*
X1275Y1557D02*
X1312Y1557D01*
X1783Y1557D02*
X1820Y1557D01*
X1875Y1557D02*
X1912Y1557D01*
X1183Y1556D02*
X1220Y1556D01*
X1275Y1556D02*
X1312Y1556D01*
X1783Y1556D02*
X1820Y1556D01*
X1875Y1556D02*
X1912Y1556D01*
X1183Y1555D02*
X1220Y1555D01*
X1274Y1555D02*
X1312Y1555D01*
X1783Y1555D02*
X1820Y1555D01*
X1874Y1555D02*
X1912Y1555D01*
X1183Y1554D02*
X1221Y1554D01*
X1274Y1554D02*
X1312Y1554D01*
X1783Y1554D02*
X1821Y1554D01*
X1874Y1554D02*
X1912Y1554D01*
X1183Y1553D02*
X1222Y1553D01*
X1273Y1553D02*
X1312Y1553D01*
X1783Y1553D02*
X1821Y1553D01*
X1873Y1553D02*
X1912Y1553D01*
X1183Y1552D02*
X1222Y1552D01*
X1273Y1552D02*
X1312Y1552D01*
X1783Y1552D02*
X1822Y1552D01*
X1873Y1552D02*
X1912Y1552D01*
X1183Y1551D02*
X1223Y1551D01*
X1272Y1551D02*
X1312Y1551D01*
X1783Y1551D02*
X1823Y1551D01*
X1872Y1551D02*
X1912Y1551D01*
X1183Y1550D02*
X1224Y1550D01*
X1271Y1550D02*
X1312Y1550D01*
X1783Y1550D02*
X1823Y1550D01*
X1871Y1550D02*
X1912Y1550D01*
X1183Y1549D02*
X1224Y1549D01*
X1270Y1549D02*
X1312Y1549D01*
X1783Y1549D02*
X1824Y1549D01*
X1870Y1549D02*
X1912Y1549D01*
X1183Y1548D02*
X1225Y1548D01*
X1270Y1548D02*
X1312Y1548D01*
X1783Y1548D02*
X1825Y1548D01*
X1870Y1548D02*
X1912Y1548D01*
X1183Y1547D02*
X1226Y1547D01*
X1269Y1547D02*
X1312Y1547D01*
X1783Y1547D02*
X1826Y1547D01*
X1869Y1547D02*
X1912Y1547D01*
X1183Y1546D02*
X1227Y1546D01*
X1268Y1546D02*
X1312Y1546D01*
X1783Y1546D02*
X1827Y1546D01*
X1868Y1546D02*
X1912Y1546D01*
X1183Y1545D02*
X1228Y1545D01*
X1267Y1545D02*
X1312Y1545D01*
X1783Y1545D02*
X1828Y1545D01*
X1867Y1545D02*
X1912Y1545D01*
X1183Y1544D02*
X1229Y1544D01*
X1265Y1544D02*
X1312Y1544D01*
X1783Y1544D02*
X1829Y1544D01*
X1865Y1544D02*
X1912Y1544D01*
X1183Y1543D02*
X1231Y1543D01*
X1264Y1543D02*
X1312Y1543D01*
X1783Y1543D02*
X1831Y1543D01*
X1864Y1543D02*
X1912Y1543D01*
X1183Y1542D02*
X1232Y1542D01*
X1262Y1542D02*
X1312Y1542D01*
X1783Y1542D02*
X1832Y1542D01*
X1862Y1542D02*
X1912Y1542D01*
X1183Y1541D02*
X1234Y1541D01*
X1261Y1541D02*
X1312Y1541D01*
X1783Y1541D02*
X1834Y1541D01*
X1861Y1541D02*
X1912Y1541D01*
X1183Y1540D02*
X1236Y1540D01*
X1258Y1540D02*
X1312Y1540D01*
X1783Y1540D02*
X1836Y1540D01*
X1858Y1540D02*
X1912Y1540D01*
X1183Y1539D02*
X1240Y1539D01*
X1255Y1539D02*
X1312Y1539D01*
X1783Y1539D02*
X1839Y1539D01*
X1855Y1539D02*
X1912Y1539D01*
X1243Y1496D02*
X1251Y1496D01*
X1843Y1496D02*
X1851Y1496D01*
X1241Y1495D02*
X1254Y1495D01*
X1841Y1495D02*
X1854Y1495D01*
X1183Y1494D02*
X1235Y1494D01*
X1259Y1494D02*
X1312Y1494D01*
X1783Y1494D02*
X1835Y1494D01*
X1859Y1494D02*
X1912Y1494D01*
X1183Y1493D02*
X1233Y1493D01*
X1261Y1493D02*
X1312Y1493D01*
X1783Y1493D02*
X1833Y1493D01*
X1861Y1493D02*
X1912Y1493D01*
X1183Y1492D02*
X1231Y1492D01*
X1263Y1492D02*
X1312Y1492D01*
X1783Y1492D02*
X1831Y1492D01*
X1863Y1492D02*
X1912Y1492D01*
X1183Y1491D02*
X1230Y1491D01*
X1265Y1491D02*
X1312Y1491D01*
X1783Y1491D02*
X1830Y1491D01*
X1865Y1491D02*
X1912Y1491D01*
X1183Y1490D02*
X1228Y1490D01*
X1266Y1490D02*
X1312Y1490D01*
X1783Y1490D02*
X1828Y1490D01*
X1866Y1490D02*
X1912Y1490D01*
X1183Y1489D02*
X1227Y1489D01*
X1267Y1489D02*
X1312Y1489D01*
X1783Y1489D02*
X1827Y1489D01*
X1867Y1489D02*
X1912Y1489D01*
X1183Y1488D02*
X1226Y1488D01*
X1268Y1488D02*
X1312Y1488D01*
X1783Y1488D02*
X1826Y1488D01*
X1868Y1488D02*
X1912Y1488D01*
X1183Y1487D02*
X1225Y1487D01*
X1269Y1487D02*
X1312Y1487D01*
X1783Y1487D02*
X1825Y1487D01*
X1869Y1487D02*
X1912Y1487D01*
X1183Y1486D02*
X1224Y1486D01*
X1270Y1486D02*
X1312Y1486D01*
X1783Y1486D02*
X1824Y1486D01*
X1870Y1486D02*
X1912Y1486D01*
X1183Y1485D02*
X1223Y1485D01*
X1271Y1485D02*
X1312Y1485D01*
X1783Y1485D02*
X1823Y1485D01*
X1871Y1485D02*
X1912Y1485D01*
X1183Y1484D02*
X1223Y1484D01*
X1272Y1484D02*
X1312Y1484D01*
X1783Y1484D02*
X1823Y1484D01*
X1871Y1484D02*
X1912Y1484D01*
X1183Y1483D02*
X1222Y1483D01*
X1272Y1483D02*
X1312Y1483D01*
X1783Y1483D02*
X1822Y1483D01*
X1872Y1483D02*
X1912Y1483D01*
X1183Y1482D02*
X1222Y1482D01*
X1273Y1482D02*
X1312Y1482D01*
X1783Y1482D02*
X1821Y1482D01*
X1873Y1482D02*
X1912Y1482D01*
X1183Y1481D02*
X1221Y1481D01*
X1273Y1481D02*
X1312Y1481D01*
X1783Y1481D02*
X1821Y1481D01*
X1873Y1481D02*
X1912Y1481D01*
X1183Y1480D02*
X1220Y1480D01*
X1274Y1480D02*
X1312Y1480D01*
X1783Y1480D02*
X1820Y1480D01*
X1874Y1480D02*
X1912Y1480D01*
X1183Y1479D02*
X1220Y1479D01*
X1274Y1479D02*
X1312Y1479D01*
X1783Y1479D02*
X1820Y1479D01*
X1874Y1479D02*
X1912Y1479D01*
X1183Y1478D02*
X1220Y1478D01*
X1275Y1478D02*
X1312Y1478D01*
X1783Y1478D02*
X1820Y1478D01*
X1875Y1478D02*
X1912Y1478D01*
X1183Y1477D02*
X1219Y1477D01*
X1275Y1477D02*
X1312Y1477D01*
X1783Y1477D02*
X1819Y1477D01*
X1875Y1477D02*
X1912Y1477D01*
X1183Y1476D02*
X1219Y1476D01*
X1276Y1476D02*
X1312Y1476D01*
X1783Y1476D02*
X1819Y1476D01*
X1876Y1476D02*
X1912Y1476D01*
X1183Y1475D02*
X1219Y1475D01*
X1276Y1475D02*
X1312Y1475D01*
X1783Y1475D02*
X1819Y1475D01*
X1876Y1475D02*
X1912Y1475D01*
X1183Y1474D02*
X1218Y1474D01*
X1276Y1474D02*
X1312Y1474D01*
X1783Y1474D02*
X1818Y1474D01*
X1876Y1474D02*
X1912Y1474D01*
X1183Y1473D02*
X1218Y1473D01*
X1276Y1473D02*
X1312Y1473D01*
X1783Y1473D02*
X1818Y1473D01*
X1876Y1473D02*
X1912Y1473D01*
X1183Y1472D02*
X1218Y1472D01*
X1277Y1472D02*
X1312Y1472D01*
X1783Y1472D02*
X1818Y1472D01*
X1877Y1472D02*
X1912Y1472D01*
X1183Y1471D02*
X1218Y1471D01*
X1277Y1471D02*
X1312Y1471D01*
X1783Y1471D02*
X1818Y1471D01*
X1877Y1471D02*
X1912Y1471D01*
X1183Y1470D02*
X1218Y1470D01*
X1277Y1470D02*
X1312Y1470D01*
X1783Y1470D02*
X1818Y1470D01*
X1877Y1470D02*
X1912Y1470D01*
X1183Y1469D02*
X1218Y1469D01*
X1277Y1469D02*
X1312Y1469D01*
X1783Y1469D02*
X1818Y1469D01*
X1877Y1469D02*
X1912Y1469D01*
X1183Y1468D02*
X1218Y1468D01*
X1277Y1468D02*
X1312Y1468D01*
X1783Y1468D02*
X1818Y1468D01*
X1877Y1468D02*
X1912Y1468D01*
X1183Y1467D02*
X1218Y1467D01*
X1277Y1467D02*
X1312Y1467D01*
X1783Y1467D02*
X1818Y1467D01*
X1877Y1467D02*
X1912Y1467D01*
X1183Y1466D02*
X1218Y1466D01*
X1277Y1466D02*
X1312Y1466D01*
X1783Y1466D02*
X1818Y1466D01*
X1877Y1466D02*
X1912Y1466D01*
X1183Y1465D02*
X1218Y1465D01*
X1277Y1465D02*
X1312Y1465D01*
X1783Y1465D02*
X1818Y1465D01*
X1877Y1465D02*
X1912Y1465D01*
X1183Y1464D02*
X1218Y1464D01*
X1277Y1464D02*
X1312Y1464D01*
X1783Y1464D02*
X1818Y1464D01*
X1877Y1464D02*
X1912Y1464D01*
X1183Y1463D02*
X1218Y1463D01*
X1277Y1463D02*
X1312Y1463D01*
X1783Y1463D02*
X1818Y1463D01*
X1877Y1463D02*
X1912Y1463D01*
X1183Y1462D02*
X1218Y1462D01*
X1276Y1462D02*
X1312Y1462D01*
X1783Y1462D02*
X1818Y1462D01*
X1876Y1462D02*
X1912Y1462D01*
X1183Y1461D02*
X1218Y1461D01*
X1276Y1461D02*
X1312Y1461D01*
X1783Y1461D02*
X1818Y1461D01*
X1876Y1461D02*
X1912Y1461D01*
X1183Y1460D02*
X1219Y1460D01*
X1276Y1460D02*
X1312Y1460D01*
X1783Y1460D02*
X1819Y1460D01*
X1876Y1460D02*
X1912Y1460D01*
X1183Y1459D02*
X1219Y1459D01*
X1276Y1459D02*
X1312Y1459D01*
X1783Y1459D02*
X1819Y1459D01*
X1876Y1459D02*
X1912Y1459D01*
X1183Y1458D02*
X1219Y1458D01*
X1275Y1458D02*
X1312Y1458D01*
X1783Y1458D02*
X1819Y1458D01*
X1875Y1458D02*
X1912Y1458D01*
X1183Y1457D02*
X1220Y1457D01*
X1275Y1457D02*
X1312Y1457D01*
X1783Y1457D02*
X1820Y1457D01*
X1875Y1457D02*
X1912Y1457D01*
X1183Y1456D02*
X1220Y1456D01*
X1275Y1456D02*
X1312Y1456D01*
X1783Y1456D02*
X1820Y1456D01*
X1874Y1456D02*
X1912Y1456D01*
X1183Y1455D02*
X1220Y1455D01*
X1274Y1455D02*
X1312Y1455D01*
X1783Y1455D02*
X1820Y1455D01*
X1874Y1455D02*
X1912Y1455D01*
X1183Y1454D02*
X1221Y1454D01*
X1274Y1454D02*
X1312Y1454D01*
X1783Y1454D02*
X1821Y1454D01*
X1873Y1454D02*
X1912Y1454D01*
X1183Y1453D02*
X1222Y1453D01*
X1273Y1453D02*
X1312Y1453D01*
X1783Y1453D02*
X1821Y1453D01*
X1873Y1453D02*
X1912Y1453D01*
X1183Y1452D02*
X1222Y1452D01*
X1272Y1452D02*
X1312Y1452D01*
X1783Y1452D02*
X1822Y1452D01*
X1872Y1452D02*
X1912Y1452D01*
X1183Y1451D02*
X1223Y1451D01*
X1272Y1451D02*
X1312Y1451D01*
X1783Y1451D02*
X1823Y1451D01*
X1872Y1451D02*
X1912Y1451D01*
X1183Y1450D02*
X1224Y1450D01*
X1271Y1450D02*
X1312Y1450D01*
X1783Y1450D02*
X1824Y1450D01*
X1871Y1450D02*
X1912Y1450D01*
X1183Y1449D02*
X1224Y1449D01*
X1270Y1449D02*
X1312Y1449D01*
X1783Y1449D02*
X1824Y1449D01*
X1870Y1449D02*
X1912Y1449D01*
X1183Y1448D02*
X1225Y1448D01*
X1269Y1448D02*
X1312Y1448D01*
X1783Y1448D02*
X1825Y1448D01*
X1869Y1448D02*
X1912Y1448D01*
X1183Y1447D02*
X1226Y1447D01*
X1268Y1447D02*
X1312Y1447D01*
X1783Y1447D02*
X1826Y1447D01*
X1868Y1447D02*
X1912Y1447D01*
X1183Y1446D02*
X1227Y1446D01*
X1267Y1446D02*
X1312Y1446D01*
X1783Y1446D02*
X1827Y1446D01*
X1867Y1446D02*
X1912Y1446D01*
X1183Y1445D02*
X1228Y1445D01*
X1266Y1445D02*
X1312Y1445D01*
X1783Y1445D02*
X1828Y1445D01*
X1866Y1445D02*
X1912Y1445D01*
X1183Y1444D02*
X1229Y1444D01*
X1265Y1444D02*
X1312Y1444D01*
X1783Y1444D02*
X1829Y1444D01*
X1865Y1444D02*
X1912Y1444D01*
X1183Y1443D02*
X1231Y1443D01*
X1263Y1443D02*
X1312Y1443D01*
X1783Y1443D02*
X1831Y1443D01*
X1863Y1443D02*
X1912Y1443D01*
X1183Y1442D02*
X1232Y1442D01*
X1262Y1442D02*
X1312Y1442D01*
X1783Y1442D02*
X1832Y1442D01*
X1862Y1442D02*
X1912Y1442D01*
X1183Y1441D02*
X1234Y1441D01*
X1260Y1441D02*
X1312Y1441D01*
X1783Y1441D02*
X1834Y1441D01*
X1860Y1441D02*
X1912Y1441D01*
X1183Y1440D02*
X1236Y1440D01*
X1258Y1440D02*
X1312Y1440D01*
X1783Y1440D02*
X1836Y1440D01*
X1858Y1440D02*
X1912Y1440D01*
X1183Y1439D02*
X1240Y1439D01*
X1255Y1439D02*
X1312Y1439D01*
X1783Y1439D02*
X1839Y1439D01*
X1855Y1439D02*
X1912Y1439D01*
X1244Y1396D02*
X1251Y1396D01*
X1844Y1396D02*
X1851Y1396D01*
X1241Y1395D02*
X1254Y1395D01*
X1841Y1395D02*
X1854Y1395D01*
X1183Y1394D02*
X1236Y1394D01*
X1259Y1394D02*
X1312Y1394D01*
X1783Y1394D02*
X1836Y1394D01*
X1859Y1394D02*
X1912Y1394D01*
X1183Y1393D02*
X1233Y1393D01*
X1261Y1393D02*
X1312Y1393D01*
X1783Y1393D02*
X1833Y1393D01*
X1861Y1393D02*
X1912Y1393D01*
X1183Y1392D02*
X1232Y1392D01*
X1263Y1392D02*
X1312Y1392D01*
X1783Y1392D02*
X1832Y1392D01*
X1863Y1392D02*
X1912Y1392D01*
X1183Y1391D02*
X1230Y1391D01*
X1265Y1391D02*
X1312Y1391D01*
X1783Y1391D02*
X1830Y1391D01*
X1865Y1391D02*
X1912Y1391D01*
X1183Y1390D02*
X1229Y1390D01*
X1266Y1390D02*
X1312Y1390D01*
X1783Y1390D02*
X1829Y1390D01*
X1866Y1390D02*
X1912Y1390D01*
X1183Y1389D02*
X1228Y1389D01*
X1267Y1389D02*
X1312Y1389D01*
X1783Y1389D02*
X1828Y1389D01*
X1867Y1389D02*
X1912Y1389D01*
X1183Y1388D02*
X1227Y1388D01*
X1268Y1388D02*
X1312Y1388D01*
X1783Y1388D02*
X1827Y1388D01*
X1868Y1388D02*
X1912Y1388D01*
X1183Y1387D02*
X1226Y1387D01*
X1269Y1387D02*
X1312Y1387D01*
X1783Y1387D02*
X1826Y1387D01*
X1869Y1387D02*
X1912Y1387D01*
X1183Y1386D02*
X1225Y1386D01*
X1270Y1386D02*
X1312Y1386D01*
X1783Y1386D02*
X1825Y1386D01*
X1870Y1386D02*
X1912Y1386D01*
X1183Y1385D02*
X1224Y1385D01*
X1271Y1385D02*
X1312Y1385D01*
X1783Y1385D02*
X1824Y1385D01*
X1871Y1385D02*
X1912Y1385D01*
X1183Y1384D02*
X1223Y1384D01*
X1272Y1384D02*
X1312Y1384D01*
X1783Y1384D02*
X1823Y1384D01*
X1871Y1384D02*
X1912Y1384D01*
X1183Y1383D02*
X1222Y1383D01*
X1272Y1383D02*
X1312Y1383D01*
X1783Y1383D02*
X1822Y1383D01*
X1872Y1383D02*
X1912Y1383D01*
X1183Y1382D02*
X1222Y1382D01*
X1273Y1382D02*
X1312Y1382D01*
X1783Y1382D02*
X1822Y1382D01*
X1873Y1382D02*
X1912Y1382D01*
X1183Y1381D02*
X1221Y1381D01*
X1273Y1381D02*
X1312Y1381D01*
X1783Y1381D02*
X1821Y1381D01*
X1873Y1381D02*
X1912Y1381D01*
X1183Y1380D02*
X1221Y1380D01*
X1274Y1380D02*
X1312Y1380D01*
X1783Y1380D02*
X1821Y1380D01*
X1874Y1380D02*
X1912Y1380D01*
X1183Y1379D02*
X1220Y1379D01*
X1274Y1379D02*
X1312Y1379D01*
X1783Y1379D02*
X1820Y1379D01*
X1874Y1379D02*
X1912Y1379D01*
X1183Y1378D02*
X1220Y1378D01*
X1275Y1378D02*
X1312Y1378D01*
X1783Y1378D02*
X1820Y1378D01*
X1875Y1378D02*
X1912Y1378D01*
X1183Y1377D02*
X1219Y1377D01*
X1275Y1377D02*
X1312Y1377D01*
X1783Y1377D02*
X1819Y1377D01*
X1875Y1377D02*
X1912Y1377D01*
X1183Y1376D02*
X1219Y1376D01*
X1276Y1376D02*
X1312Y1376D01*
X1783Y1376D02*
X1819Y1376D01*
X1876Y1376D02*
X1912Y1376D01*
X1183Y1375D02*
X1219Y1375D01*
X1276Y1375D02*
X1312Y1375D01*
X1783Y1375D02*
X1819Y1375D01*
X1876Y1375D02*
X1912Y1375D01*
X1183Y1374D02*
X1219Y1374D01*
X1276Y1374D02*
X1312Y1374D01*
X1783Y1374D02*
X1818Y1374D01*
X1876Y1374D02*
X1912Y1374D01*
X1183Y1373D02*
X1218Y1373D01*
X1276Y1373D02*
X1312Y1373D01*
X1783Y1373D02*
X1818Y1373D01*
X1876Y1373D02*
X1912Y1373D01*
X1183Y1372D02*
X1218Y1372D01*
X1277Y1372D02*
X1312Y1372D01*
X1783Y1372D02*
X1818Y1372D01*
X1877Y1372D02*
X1912Y1372D01*
X1183Y1371D02*
X1218Y1371D01*
X1277Y1371D02*
X1312Y1371D01*
X1783Y1371D02*
X1818Y1371D01*
X1877Y1371D02*
X1912Y1371D01*
X1183Y1370D02*
X1218Y1370D01*
X1277Y1370D02*
X1312Y1370D01*
X1783Y1370D02*
X1818Y1370D01*
X1877Y1370D02*
X1912Y1370D01*
X1183Y1369D02*
X1218Y1369D01*
X1277Y1369D02*
X1312Y1369D01*
X1783Y1369D02*
X1818Y1369D01*
X1877Y1369D02*
X1912Y1369D01*
X1183Y1368D02*
X1218Y1368D01*
X1277Y1368D02*
X1312Y1368D01*
X1783Y1368D02*
X1818Y1368D01*
X1877Y1368D02*
X1912Y1368D01*
X1183Y1367D02*
X1218Y1367D01*
X1277Y1367D02*
X1312Y1367D01*
X1783Y1367D02*
X1818Y1367D01*
X1877Y1367D02*
X1912Y1367D01*
X1183Y1366D02*
X1218Y1366D01*
X1277Y1366D02*
X1312Y1366D01*
X1783Y1366D02*
X1818Y1366D01*
X1877Y1366D02*
X1912Y1366D01*
X1183Y1365D02*
X1218Y1365D01*
X1277Y1365D02*
X1312Y1365D01*
X1783Y1365D02*
X1818Y1365D01*
X1877Y1365D02*
X1912Y1365D01*
X1183Y1364D02*
X1218Y1364D01*
X1277Y1364D02*
X1312Y1364D01*
X1783Y1364D02*
X1818Y1364D01*
X1877Y1364D02*
X1912Y1364D01*
X1183Y1363D02*
X1218Y1363D01*
X1277Y1363D02*
X1312Y1363D01*
X1783Y1363D02*
X1818Y1363D01*
X1877Y1363D02*
X1912Y1363D01*
X1183Y1362D02*
X1218Y1362D01*
X1276Y1362D02*
X1312Y1362D01*
X1783Y1362D02*
X1818Y1362D01*
X1876Y1362D02*
X1912Y1362D01*
X1183Y1361D02*
X1218Y1361D01*
X1276Y1361D02*
X1312Y1361D01*
X1783Y1361D02*
X1818Y1361D01*
X1876Y1361D02*
X1912Y1361D01*
X1183Y1360D02*
X1219Y1360D01*
X1276Y1360D02*
X1312Y1360D01*
X1783Y1360D02*
X1819Y1360D01*
X1876Y1360D02*
X1912Y1360D01*
X1183Y1359D02*
X1219Y1359D01*
X1276Y1359D02*
X1312Y1359D01*
X1783Y1359D02*
X1819Y1359D01*
X1876Y1359D02*
X1912Y1359D01*
X1183Y1358D02*
X1219Y1358D01*
X1275Y1358D02*
X1312Y1358D01*
X1783Y1358D02*
X1819Y1358D01*
X1875Y1358D02*
X1912Y1358D01*
X1183Y1357D02*
X1220Y1357D01*
X1275Y1357D02*
X1312Y1357D01*
X1783Y1357D02*
X1820Y1357D01*
X1875Y1357D02*
X1912Y1357D01*
X1183Y1356D02*
X1220Y1356D01*
X1275Y1356D02*
X1312Y1356D01*
X1783Y1356D02*
X1820Y1356D01*
X1874Y1356D02*
X1912Y1356D01*
X1183Y1355D02*
X1220Y1355D01*
X1274Y1355D02*
X1312Y1355D01*
X1783Y1355D02*
X1820Y1355D01*
X1874Y1355D02*
X1912Y1355D01*
X1183Y1354D02*
X1221Y1354D01*
X1274Y1354D02*
X1312Y1354D01*
X1783Y1354D02*
X1821Y1354D01*
X1873Y1354D02*
X1912Y1354D01*
X1183Y1353D02*
X1222Y1353D01*
X1273Y1353D02*
X1312Y1353D01*
X1783Y1353D02*
X1821Y1353D01*
X1873Y1353D02*
X1912Y1353D01*
X1183Y1352D02*
X1222Y1352D01*
X1272Y1352D02*
X1312Y1352D01*
X1783Y1352D02*
X1822Y1352D01*
X1872Y1352D02*
X1912Y1352D01*
X1183Y1351D02*
X1223Y1351D01*
X1272Y1351D02*
X1312Y1351D01*
X1783Y1351D02*
X1823Y1351D01*
X1872Y1351D02*
X1912Y1351D01*
X1183Y1350D02*
X1224Y1350D01*
X1271Y1350D02*
X1312Y1350D01*
X1783Y1350D02*
X1824Y1350D01*
X1871Y1350D02*
X1912Y1350D01*
X1183Y1349D02*
X1224Y1349D01*
X1270Y1349D02*
X1312Y1349D01*
X1783Y1349D02*
X1824Y1349D01*
X1870Y1349D02*
X1912Y1349D01*
X1183Y1348D02*
X1225Y1348D01*
X1269Y1348D02*
X1312Y1348D01*
X1783Y1348D02*
X1825Y1348D01*
X1869Y1348D02*
X1912Y1348D01*
X1183Y1347D02*
X1226Y1347D01*
X1268Y1347D02*
X1312Y1347D01*
X1783Y1347D02*
X1826Y1347D01*
X1868Y1347D02*
X1912Y1347D01*
X1183Y1346D02*
X1227Y1346D01*
X1267Y1346D02*
X1312Y1346D01*
X1783Y1346D02*
X1827Y1346D01*
X1867Y1346D02*
X1912Y1346D01*
X1183Y1345D02*
X1228Y1345D01*
X1266Y1345D02*
X1312Y1345D01*
X1783Y1345D02*
X1828Y1345D01*
X1866Y1345D02*
X1912Y1345D01*
X1183Y1344D02*
X1229Y1344D01*
X1265Y1344D02*
X1312Y1344D01*
X1783Y1344D02*
X1829Y1344D01*
X1865Y1344D02*
X1912Y1344D01*
X1183Y1343D02*
X1231Y1343D01*
X1263Y1343D02*
X1312Y1343D01*
X1783Y1343D02*
X1831Y1343D01*
X1863Y1343D02*
X1912Y1343D01*
X1183Y1342D02*
X1232Y1342D01*
X1262Y1342D02*
X1312Y1342D01*
X1783Y1342D02*
X1832Y1342D01*
X1862Y1342D02*
X1912Y1342D01*
X1183Y1341D02*
X1234Y1341D01*
X1260Y1341D02*
X1312Y1341D01*
X1783Y1341D02*
X1834Y1341D01*
X1860Y1341D02*
X1912Y1341D01*
X1183Y1340D02*
X1236Y1340D01*
X1258Y1340D02*
X1312Y1340D01*
X1783Y1340D02*
X1836Y1340D01*
X1858Y1340D02*
X1912Y1340D01*
X1183Y1339D02*
X1240Y1339D01*
X1255Y1339D02*
X1312Y1339D01*
X1783Y1339D02*
X1840Y1339D01*
X1855Y1339D02*
X1912Y1339D01*
X1243Y1296D02*
X1251Y1296D01*
X1843Y1296D02*
X1851Y1296D01*
X1241Y1295D02*
X1254Y1295D01*
X1841Y1295D02*
X1854Y1295D01*
X1183Y1294D02*
X1236Y1294D01*
X1259Y1294D02*
X1312Y1294D01*
X1783Y1294D02*
X1836Y1294D01*
X1859Y1294D02*
X1912Y1294D01*
X1183Y1293D02*
X1233Y1293D01*
X1261Y1293D02*
X1312Y1293D01*
X1783Y1293D02*
X1833Y1293D01*
X1861Y1293D02*
X1912Y1293D01*
X1183Y1292D02*
X1232Y1292D01*
X1263Y1292D02*
X1312Y1292D01*
X1783Y1292D02*
X1832Y1292D01*
X1863Y1292D02*
X1912Y1292D01*
X1183Y1291D02*
X1230Y1291D01*
X1265Y1291D02*
X1312Y1291D01*
X1783Y1291D02*
X1830Y1291D01*
X1865Y1291D02*
X1912Y1291D01*
X1183Y1290D02*
X1229Y1290D01*
X1266Y1290D02*
X1312Y1290D01*
X1783Y1290D02*
X1829Y1290D01*
X1866Y1290D02*
X1912Y1290D01*
X1183Y1289D02*
X1228Y1289D01*
X1267Y1289D02*
X1312Y1289D01*
X1783Y1289D02*
X1828Y1289D01*
X1867Y1289D02*
X1912Y1289D01*
X1183Y1288D02*
X1227Y1288D01*
X1268Y1288D02*
X1312Y1288D01*
X1783Y1288D02*
X1827Y1288D01*
X1868Y1288D02*
X1912Y1288D01*
X1183Y1287D02*
X1226Y1287D01*
X1269Y1287D02*
X1312Y1287D01*
X1783Y1287D02*
X1826Y1287D01*
X1869Y1287D02*
X1912Y1287D01*
X1183Y1286D02*
X1225Y1286D01*
X1270Y1286D02*
X1312Y1286D01*
X1783Y1286D02*
X1825Y1286D01*
X1870Y1286D02*
X1912Y1286D01*
X1183Y1285D02*
X1224Y1285D01*
X1271Y1285D02*
X1312Y1285D01*
X1783Y1285D02*
X1824Y1285D01*
X1871Y1285D02*
X1912Y1285D01*
X1183Y1284D02*
X1223Y1284D01*
X1272Y1284D02*
X1312Y1284D01*
X1783Y1284D02*
X1823Y1284D01*
X1871Y1284D02*
X1912Y1284D01*
X1183Y1283D02*
X1222Y1283D01*
X1272Y1283D02*
X1312Y1283D01*
X1783Y1283D02*
X1822Y1283D01*
X1872Y1283D02*
X1912Y1283D01*
X1183Y1282D02*
X1222Y1282D01*
X1273Y1282D02*
X1312Y1282D01*
X1783Y1282D02*
X1822Y1282D01*
X1873Y1282D02*
X1912Y1282D01*
X1183Y1281D02*
X1221Y1281D01*
X1273Y1281D02*
X1312Y1281D01*
X1783Y1281D02*
X1821Y1281D01*
X1873Y1281D02*
X1912Y1281D01*
X1183Y1280D02*
X1221Y1280D01*
X1274Y1280D02*
X1312Y1280D01*
X1783Y1280D02*
X1821Y1280D01*
X1874Y1280D02*
X1912Y1280D01*
X1183Y1279D02*
X1220Y1279D01*
X1274Y1279D02*
X1312Y1279D01*
X1783Y1279D02*
X1820Y1279D01*
X1874Y1279D02*
X1912Y1279D01*
X1183Y1278D02*
X1220Y1278D01*
X1275Y1278D02*
X1312Y1278D01*
X1783Y1278D02*
X1820Y1278D01*
X1875Y1278D02*
X1912Y1278D01*
X1183Y1277D02*
X1219Y1277D01*
X1275Y1277D02*
X1312Y1277D01*
X1783Y1277D02*
X1819Y1277D01*
X1875Y1277D02*
X1912Y1277D01*
X1183Y1276D02*
X1219Y1276D01*
X1276Y1276D02*
X1312Y1276D01*
X1783Y1276D02*
X1819Y1276D01*
X1876Y1276D02*
X1912Y1276D01*
X1183Y1275D02*
X1219Y1275D01*
X1276Y1275D02*
X1312Y1275D01*
X1783Y1275D02*
X1819Y1275D01*
X1876Y1275D02*
X1912Y1275D01*
X1183Y1274D02*
X1219Y1274D01*
X1276Y1274D02*
X1312Y1274D01*
X1783Y1274D02*
X1818Y1274D01*
X1876Y1274D02*
X1912Y1274D01*
X1183Y1273D02*
X1218Y1273D01*
X1276Y1273D02*
X1312Y1273D01*
X1783Y1273D02*
X1818Y1273D01*
X1876Y1273D02*
X1912Y1273D01*
X1183Y1272D02*
X1218Y1272D01*
X1277Y1272D02*
X1312Y1272D01*
X1783Y1272D02*
X1818Y1272D01*
X1877Y1272D02*
X1912Y1272D01*
X1183Y1271D02*
X1218Y1271D01*
X1277Y1271D02*
X1312Y1271D01*
X1783Y1271D02*
X1818Y1271D01*
X1877Y1271D02*
X1912Y1271D01*
X1183Y1270D02*
X1218Y1270D01*
X1277Y1270D02*
X1312Y1270D01*
X1783Y1270D02*
X1818Y1270D01*
X1877Y1270D02*
X1912Y1270D01*
X1183Y1269D02*
X1218Y1269D01*
X1277Y1269D02*
X1312Y1269D01*
X1783Y1269D02*
X1818Y1269D01*
X1877Y1269D02*
X1912Y1269D01*
X1183Y1268D02*
X1218Y1268D01*
X1277Y1268D02*
X1312Y1268D01*
X1783Y1268D02*
X1818Y1268D01*
X1877Y1268D02*
X1912Y1268D01*
X1183Y1267D02*
X1218Y1267D01*
X1277Y1267D02*
X1312Y1267D01*
X1783Y1267D02*
X1818Y1267D01*
X1877Y1267D02*
X1912Y1267D01*
X1183Y1266D02*
X1218Y1266D01*
X1277Y1266D02*
X1312Y1266D01*
X1783Y1266D02*
X1818Y1266D01*
X1877Y1266D02*
X1912Y1266D01*
X1183Y1265D02*
X1218Y1265D01*
X1277Y1265D02*
X1312Y1265D01*
X1783Y1265D02*
X1818Y1265D01*
X1877Y1265D02*
X1912Y1265D01*
X1183Y1264D02*
X1218Y1264D01*
X1277Y1264D02*
X1312Y1264D01*
X1783Y1264D02*
X1818Y1264D01*
X1877Y1264D02*
X1912Y1264D01*
X1183Y1263D02*
X1218Y1263D01*
X1277Y1263D02*
X1312Y1263D01*
X1783Y1263D02*
X1818Y1263D01*
X1877Y1263D02*
X1912Y1263D01*
X1183Y1262D02*
X1218Y1262D01*
X1276Y1262D02*
X1312Y1262D01*
X1783Y1262D02*
X1818Y1262D01*
X1876Y1262D02*
X1912Y1262D01*
X1183Y1261D02*
X1218Y1261D01*
X1276Y1261D02*
X1312Y1261D01*
X1783Y1261D02*
X1818Y1261D01*
X1876Y1261D02*
X1912Y1261D01*
X1183Y1260D02*
X1219Y1260D01*
X1276Y1260D02*
X1312Y1260D01*
X1783Y1260D02*
X1819Y1260D01*
X1876Y1260D02*
X1912Y1260D01*
X1183Y1259D02*
X1219Y1259D01*
X1276Y1259D02*
X1312Y1259D01*
X1783Y1259D02*
X1819Y1259D01*
X1876Y1259D02*
X1912Y1259D01*
X1183Y1258D02*
X1219Y1258D01*
X1275Y1258D02*
X1312Y1258D01*
X1783Y1258D02*
X1819Y1258D01*
X1875Y1258D02*
X1912Y1258D01*
X1183Y1257D02*
X1220Y1257D01*
X1275Y1257D02*
X1312Y1257D01*
X1783Y1257D02*
X1820Y1257D01*
X1875Y1257D02*
X1912Y1257D01*
X1183Y1256D02*
X1220Y1256D01*
X1275Y1256D02*
X1312Y1256D01*
X1783Y1256D02*
X1820Y1256D01*
X1874Y1256D02*
X1912Y1256D01*
X1183Y1255D02*
X1220Y1255D01*
X1274Y1255D02*
X1312Y1255D01*
X1783Y1255D02*
X1820Y1255D01*
X1874Y1255D02*
X1912Y1255D01*
X1183Y1254D02*
X1221Y1254D01*
X1274Y1254D02*
X1312Y1254D01*
X1783Y1254D02*
X1821Y1254D01*
X1873Y1254D02*
X1912Y1254D01*
X1183Y1253D02*
X1222Y1253D01*
X1273Y1253D02*
X1312Y1253D01*
X1783Y1253D02*
X1821Y1253D01*
X1873Y1253D02*
X1912Y1253D01*
X1183Y1252D02*
X1222Y1252D01*
X1272Y1252D02*
X1312Y1252D01*
X1783Y1252D02*
X1822Y1252D01*
X1872Y1252D02*
X1912Y1252D01*
X1183Y1251D02*
X1223Y1251D01*
X1272Y1251D02*
X1312Y1251D01*
X1783Y1251D02*
X1823Y1251D01*
X1872Y1251D02*
X1912Y1251D01*
X1183Y1250D02*
X1224Y1250D01*
X1271Y1250D02*
X1312Y1250D01*
X1783Y1250D02*
X1824Y1250D01*
X1871Y1250D02*
X1912Y1250D01*
X1183Y1249D02*
X1224Y1249D01*
X1270Y1249D02*
X1312Y1249D01*
X1783Y1249D02*
X1824Y1249D01*
X1870Y1249D02*
X1912Y1249D01*
X1183Y1248D02*
X1225Y1248D01*
X1269Y1248D02*
X1312Y1248D01*
X1783Y1248D02*
X1825Y1248D01*
X1869Y1248D02*
X1912Y1248D01*
X1183Y1247D02*
X1226Y1247D01*
X1268Y1247D02*
X1312Y1247D01*
X1783Y1247D02*
X1826Y1247D01*
X1868Y1247D02*
X1912Y1247D01*
X1183Y1246D02*
X1227Y1246D01*
X1267Y1246D02*
X1312Y1246D01*
X1783Y1246D02*
X1827Y1246D01*
X1867Y1246D02*
X1912Y1246D01*
X1183Y1245D02*
X1228Y1245D01*
X1266Y1245D02*
X1312Y1245D01*
X1783Y1245D02*
X1828Y1245D01*
X1866Y1245D02*
X1912Y1245D01*
X1183Y1244D02*
X1229Y1244D01*
X1265Y1244D02*
X1312Y1244D01*
X1783Y1244D02*
X1829Y1244D01*
X1865Y1244D02*
X1912Y1244D01*
X1183Y1243D02*
X1231Y1243D01*
X1263Y1243D02*
X1312Y1243D01*
X1783Y1243D02*
X1831Y1243D01*
X1863Y1243D02*
X1912Y1243D01*
X1183Y1242D02*
X1232Y1242D01*
X1262Y1242D02*
X1312Y1242D01*
X1783Y1242D02*
X1832Y1242D01*
X1862Y1242D02*
X1912Y1242D01*
X1183Y1241D02*
X1234Y1241D01*
X1260Y1241D02*
X1312Y1241D01*
X1783Y1241D02*
X1834Y1241D01*
X1860Y1241D02*
X1912Y1241D01*
X1183Y1240D02*
X1237Y1240D01*
X1258Y1240D02*
X1312Y1240D01*
X1783Y1240D02*
X1836Y1240D01*
X1858Y1240D02*
X1912Y1240D01*
X1183Y1239D02*
X1240Y1239D01*
X1255Y1239D02*
X1312Y1239D01*
X1783Y1239D02*
X1840Y1239D01*
X1855Y1239D02*
X1912Y1239D01*
D02*
G04 End of Copper1*
M02*