G04 MADE WITH FRITZING*
G04 WWW.FRITZING.ORG*
G04 DOUBLE SIDED*
G04 HOLES PLATED*
G04 CONTOUR ON CENTER OF CONTOUR VECTOR*
%ASAXBY*%
%FSLAX23Y23*%
%MOIN*%
%OFA0B0*%
%SFA1.0B1.0*%
%ADD10C,0.085333*%
%ADD11C,0.090000*%
%ADD12C,0.077278*%
%ADD13C,0.080000*%
%ADD14C,0.089370*%
%ADD15R,0.090000X0.090000*%
%ADD16R,0.080000X0.079972*%
%ADD17R,0.001000X0.001000*%
%LNMASK1*%
G90*
G70*
G54D10*
X1248Y1967D03*
X1248Y1867D03*
X1848Y1967D03*
X1848Y1867D03*
X1848Y1767D03*
X1848Y1667D03*
X1848Y1567D03*
X1848Y1467D03*
X1848Y1367D03*
X1848Y1267D03*
X1248Y1267D03*
X1248Y1367D03*
X1248Y1467D03*
X1248Y1567D03*
X1248Y1667D03*
X1248Y1767D03*
G54D11*
X2248Y267D03*
X2248Y167D03*
X2248Y2167D03*
X2248Y2067D03*
X2248Y1867D03*
X2248Y1767D03*
X2248Y1667D03*
X2248Y1567D03*
G54D12*
X248Y1367D03*
X348Y1367D03*
X448Y1367D03*
X548Y1367D03*
X248Y1267D03*
X348Y1267D03*
X448Y1267D03*
X548Y1267D03*
G54D13*
X1948Y967D03*
X1848Y967D03*
X1748Y967D03*
X1648Y967D03*
X1548Y967D03*
X1448Y967D03*
X1348Y967D03*
X1248Y967D03*
X1148Y967D03*
X1048Y967D03*
X948Y967D03*
X848Y967D03*
X748Y967D03*
X648Y967D03*
X548Y967D03*
X1948Y367D03*
X1848Y367D03*
X1748Y367D03*
X1648Y367D03*
X1548Y367D03*
X1448Y367D03*
X1348Y367D03*
X1248Y367D03*
X1148Y367D03*
X1048Y367D03*
X948Y367D03*
X848Y367D03*
X748Y367D03*
X648Y367D03*
X548Y367D03*
G54D14*
X248Y567D03*
X248Y667D03*
X248Y767D03*
X248Y867D03*
X248Y967D03*
X1548Y167D03*
X1448Y167D03*
X1348Y167D03*
X1248Y167D03*
X1148Y167D03*
G54D15*
X2248Y267D03*
X2248Y2167D03*
X2248Y1867D03*
G54D16*
X1948Y967D03*
G54D17*
X1243Y2001D02*
X1251Y2001D01*
X1843Y2001D02*
X1851Y2001D01*
X1237Y2000D02*
X1257Y2000D01*
X1837Y2000D02*
X1857Y2000D01*
X1178Y1999D02*
X1317Y1999D01*
X1778Y1999D02*
X1917Y1999D01*
X1178Y1998D02*
X1317Y1998D01*
X1778Y1998D02*
X1917Y1998D01*
X1178Y1997D02*
X1317Y1997D01*
X1778Y1997D02*
X1917Y1997D01*
X1178Y1996D02*
X1317Y1996D01*
X1778Y1996D02*
X1917Y1996D01*
X1178Y1995D02*
X1317Y1995D01*
X1778Y1995D02*
X1917Y1995D01*
X1178Y1994D02*
X1317Y1994D01*
X1778Y1994D02*
X1917Y1994D01*
X1178Y1993D02*
X1317Y1993D01*
X1778Y1993D02*
X1917Y1993D01*
X1178Y1992D02*
X1317Y1992D01*
X1778Y1992D02*
X1917Y1992D01*
X1178Y1991D02*
X1317Y1991D01*
X1778Y1991D02*
X1917Y1991D01*
X1178Y1990D02*
X1317Y1990D01*
X1778Y1990D02*
X1917Y1990D01*
X1178Y1989D02*
X1236Y1989D01*
X1258Y1989D02*
X1317Y1989D01*
X1778Y1989D02*
X1836Y1989D01*
X1858Y1989D02*
X1917Y1989D01*
X1178Y1988D02*
X1234Y1988D01*
X1260Y1988D02*
X1317Y1988D01*
X1778Y1988D02*
X1834Y1988D01*
X1860Y1988D02*
X1917Y1988D01*
X1178Y1987D02*
X1233Y1987D01*
X1262Y1987D02*
X1317Y1987D01*
X1778Y1987D02*
X1833Y1987D01*
X1862Y1987D02*
X1917Y1987D01*
X1178Y1986D02*
X1231Y1986D01*
X1263Y1986D02*
X1317Y1986D01*
X1778Y1986D02*
X1831Y1986D01*
X1863Y1986D02*
X1917Y1986D01*
X1178Y1985D02*
X1230Y1985D01*
X1264Y1985D02*
X1317Y1985D01*
X1778Y1985D02*
X1830Y1985D01*
X1864Y1985D02*
X1917Y1985D01*
X1178Y1984D02*
X1229Y1984D01*
X1265Y1984D02*
X1317Y1984D01*
X1778Y1984D02*
X1829Y1984D01*
X1865Y1984D02*
X1917Y1984D01*
X1178Y1983D02*
X1228Y1983D01*
X1266Y1983D02*
X1317Y1983D01*
X1778Y1983D02*
X1828Y1983D01*
X1866Y1983D02*
X1917Y1983D01*
X1178Y1982D02*
X1228Y1982D01*
X1267Y1982D02*
X1317Y1982D01*
X1778Y1982D02*
X1827Y1982D01*
X1867Y1982D02*
X1917Y1982D01*
X1178Y1981D02*
X1227Y1981D01*
X1268Y1981D02*
X1317Y1981D01*
X1778Y1981D02*
X1827Y1981D01*
X1867Y1981D02*
X1917Y1981D01*
X1178Y1980D02*
X1226Y1980D01*
X1268Y1980D02*
X1317Y1980D01*
X1778Y1980D02*
X1826Y1980D01*
X1868Y1980D02*
X1917Y1980D01*
X1178Y1979D02*
X1226Y1979D01*
X1269Y1979D02*
X1317Y1979D01*
X1778Y1979D02*
X1826Y1979D01*
X1869Y1979D02*
X1917Y1979D01*
X1178Y1978D02*
X1225Y1978D01*
X1269Y1978D02*
X1317Y1978D01*
X1778Y1978D02*
X1825Y1978D01*
X1869Y1978D02*
X1917Y1978D01*
X1178Y1977D02*
X1225Y1977D01*
X1270Y1977D02*
X1317Y1977D01*
X1778Y1977D02*
X1824Y1977D01*
X1870Y1977D02*
X1917Y1977D01*
X1178Y1976D02*
X1224Y1976D01*
X1270Y1976D02*
X1317Y1976D01*
X1778Y1976D02*
X1824Y1976D01*
X1870Y1976D02*
X1917Y1976D01*
X1178Y1975D02*
X1224Y1975D01*
X1271Y1975D02*
X1317Y1975D01*
X1778Y1975D02*
X1824Y1975D01*
X1871Y1975D02*
X1917Y1975D01*
X1178Y1974D02*
X1224Y1974D01*
X1271Y1974D02*
X1317Y1974D01*
X1778Y1974D02*
X1823Y1974D01*
X1871Y1974D02*
X1917Y1974D01*
X1178Y1973D02*
X1223Y1973D01*
X1271Y1973D02*
X1317Y1973D01*
X1778Y1973D02*
X1823Y1973D01*
X1871Y1973D02*
X1917Y1973D01*
X1178Y1972D02*
X1223Y1972D01*
X1272Y1972D02*
X1317Y1972D01*
X1778Y1972D02*
X1823Y1972D01*
X1872Y1972D02*
X1917Y1972D01*
X1178Y1971D02*
X1223Y1971D01*
X1272Y1971D02*
X1317Y1971D01*
X1778Y1971D02*
X1823Y1971D01*
X1872Y1971D02*
X1917Y1971D01*
X1178Y1970D02*
X1223Y1970D01*
X1272Y1970D02*
X1317Y1970D01*
X1778Y1970D02*
X1823Y1970D01*
X1872Y1970D02*
X1917Y1970D01*
X1178Y1969D02*
X1223Y1969D01*
X1272Y1969D02*
X1317Y1969D01*
X1778Y1969D02*
X1823Y1969D01*
X1872Y1969D02*
X1917Y1969D01*
X1178Y1968D02*
X1223Y1968D01*
X1272Y1968D02*
X1317Y1968D01*
X1778Y1968D02*
X1823Y1968D01*
X1872Y1968D02*
X1917Y1968D01*
X1178Y1967D02*
X1223Y1967D01*
X1272Y1967D02*
X1317Y1967D01*
X1778Y1967D02*
X1823Y1967D01*
X1872Y1967D02*
X1917Y1967D01*
X1178Y1966D02*
X1223Y1966D01*
X1272Y1966D02*
X1317Y1966D01*
X1778Y1966D02*
X1823Y1966D01*
X1872Y1966D02*
X1917Y1966D01*
X1178Y1965D02*
X1223Y1965D01*
X1272Y1965D02*
X1317Y1965D01*
X1778Y1965D02*
X1823Y1965D01*
X1872Y1965D02*
X1917Y1965D01*
X1178Y1964D02*
X1223Y1964D01*
X1272Y1964D02*
X1317Y1964D01*
X1778Y1964D02*
X1823Y1964D01*
X1872Y1964D02*
X1917Y1964D01*
X1178Y1963D02*
X1223Y1963D01*
X1272Y1963D02*
X1317Y1963D01*
X1778Y1963D02*
X1823Y1963D01*
X1872Y1963D02*
X1917Y1963D01*
X1178Y1962D02*
X1223Y1962D01*
X1271Y1962D02*
X1317Y1962D01*
X1778Y1962D02*
X1823Y1962D01*
X1871Y1962D02*
X1917Y1962D01*
X1178Y1961D02*
X1224Y1961D01*
X1271Y1961D02*
X1317Y1961D01*
X1778Y1961D02*
X1824Y1961D01*
X1871Y1961D02*
X1917Y1961D01*
X1178Y1960D02*
X1224Y1960D01*
X1271Y1960D02*
X1317Y1960D01*
X1778Y1960D02*
X1824Y1960D01*
X1871Y1960D02*
X1917Y1960D01*
X1178Y1959D02*
X1224Y1959D01*
X1271Y1959D02*
X1317Y1959D01*
X1778Y1959D02*
X1824Y1959D01*
X1871Y1959D02*
X1917Y1959D01*
X1178Y1958D02*
X1224Y1958D01*
X1270Y1958D02*
X1317Y1958D01*
X1778Y1958D02*
X1824Y1958D01*
X1870Y1958D02*
X1917Y1958D01*
X1178Y1957D02*
X1225Y1957D01*
X1270Y1957D02*
X1317Y1957D01*
X1778Y1957D02*
X1825Y1957D01*
X1870Y1957D02*
X1917Y1957D01*
X1178Y1956D02*
X1226Y1956D01*
X1269Y1956D02*
X1317Y1956D01*
X1778Y1956D02*
X1826Y1956D01*
X1869Y1956D02*
X1917Y1956D01*
X1178Y1955D02*
X1226Y1955D01*
X1269Y1955D02*
X1317Y1955D01*
X1778Y1955D02*
X1826Y1955D01*
X1869Y1955D02*
X1917Y1955D01*
X1178Y1954D02*
X1227Y1954D01*
X1268Y1954D02*
X1317Y1954D01*
X1778Y1954D02*
X1827Y1954D01*
X1868Y1954D02*
X1917Y1954D01*
X1178Y1953D02*
X1227Y1953D01*
X1267Y1953D02*
X1317Y1953D01*
X1778Y1953D02*
X1827Y1953D01*
X1867Y1953D02*
X1917Y1953D01*
X1178Y1952D02*
X1228Y1952D01*
X1266Y1952D02*
X1317Y1952D01*
X1778Y1952D02*
X1828Y1952D01*
X1866Y1952D02*
X1917Y1952D01*
X1178Y1951D02*
X1229Y1951D01*
X1266Y1951D02*
X1317Y1951D01*
X1778Y1951D02*
X1829Y1951D01*
X1866Y1951D02*
X1917Y1951D01*
X1178Y1950D02*
X1230Y1950D01*
X1265Y1950D02*
X1317Y1950D01*
X1778Y1950D02*
X1830Y1950D01*
X1865Y1950D02*
X1917Y1950D01*
X1178Y1949D02*
X1231Y1949D01*
X1264Y1949D02*
X1317Y1949D01*
X1778Y1949D02*
X1831Y1949D01*
X1864Y1949D02*
X1917Y1949D01*
X1178Y1948D02*
X1232Y1948D01*
X1262Y1948D02*
X1317Y1948D01*
X1778Y1948D02*
X1832Y1948D01*
X1862Y1948D02*
X1917Y1948D01*
X1178Y1947D02*
X1234Y1947D01*
X1261Y1947D02*
X1317Y1947D01*
X1778Y1947D02*
X1834Y1947D01*
X1861Y1947D02*
X1917Y1947D01*
X1178Y1946D02*
X1235Y1946D01*
X1259Y1946D02*
X1317Y1946D01*
X1778Y1946D02*
X1835Y1946D01*
X1859Y1946D02*
X1917Y1946D01*
X1178Y1945D02*
X1237Y1945D01*
X1258Y1945D02*
X1317Y1945D01*
X1778Y1945D02*
X1837Y1945D01*
X1858Y1945D02*
X1917Y1945D01*
X1178Y1944D02*
X1240Y1944D01*
X1255Y1944D02*
X1317Y1944D01*
X1778Y1944D02*
X1840Y1944D01*
X1855Y1944D02*
X1917Y1944D01*
X1178Y1943D02*
X1317Y1943D01*
X1778Y1943D02*
X1917Y1943D01*
X1178Y1942D02*
X1317Y1942D01*
X1778Y1942D02*
X1917Y1942D01*
X1178Y1941D02*
X1317Y1941D01*
X1778Y1941D02*
X1917Y1941D01*
X1178Y1940D02*
X1317Y1940D01*
X1778Y1940D02*
X1917Y1940D01*
X1178Y1939D02*
X1317Y1939D01*
X1778Y1939D02*
X1917Y1939D01*
X1178Y1938D02*
X1317Y1938D01*
X1778Y1938D02*
X1917Y1938D01*
X1178Y1937D02*
X1317Y1937D01*
X1778Y1937D02*
X1917Y1937D01*
X1178Y1936D02*
X1317Y1936D01*
X1778Y1936D02*
X1917Y1936D01*
X1178Y1935D02*
X1317Y1935D01*
X1778Y1935D02*
X1917Y1935D01*
X1178Y1934D02*
X1317Y1934D01*
X1778Y1934D02*
X1917Y1934D01*
X1178Y1933D02*
X1317Y1933D01*
X1778Y1933D02*
X1917Y1933D01*
X1243Y1901D02*
X1251Y1901D01*
X1843Y1901D02*
X1851Y1901D01*
X1237Y1900D02*
X1257Y1900D01*
X1837Y1900D02*
X1857Y1900D01*
X1178Y1899D02*
X1317Y1899D01*
X1778Y1899D02*
X1917Y1899D01*
X1178Y1898D02*
X1317Y1898D01*
X1778Y1898D02*
X1917Y1898D01*
X1178Y1897D02*
X1317Y1897D01*
X1778Y1897D02*
X1917Y1897D01*
X1178Y1896D02*
X1317Y1896D01*
X1778Y1896D02*
X1917Y1896D01*
X1178Y1895D02*
X1317Y1895D01*
X1778Y1895D02*
X1917Y1895D01*
X1178Y1894D02*
X1317Y1894D01*
X1778Y1894D02*
X1917Y1894D01*
X1178Y1893D02*
X1317Y1893D01*
X1778Y1893D02*
X1917Y1893D01*
X1178Y1892D02*
X1317Y1892D01*
X1778Y1892D02*
X1917Y1892D01*
X1178Y1891D02*
X1317Y1891D01*
X1778Y1891D02*
X1917Y1891D01*
X1178Y1890D02*
X1317Y1890D01*
X1778Y1890D02*
X1917Y1890D01*
X1178Y1889D02*
X1236Y1889D01*
X1258Y1889D02*
X1317Y1889D01*
X1778Y1889D02*
X1836Y1889D01*
X1858Y1889D02*
X1917Y1889D01*
X1178Y1888D02*
X1234Y1888D01*
X1260Y1888D02*
X1317Y1888D01*
X1778Y1888D02*
X1834Y1888D01*
X1860Y1888D02*
X1917Y1888D01*
X1178Y1887D02*
X1233Y1887D01*
X1262Y1887D02*
X1317Y1887D01*
X1778Y1887D02*
X1833Y1887D01*
X1862Y1887D02*
X1917Y1887D01*
X1178Y1886D02*
X1231Y1886D01*
X1263Y1886D02*
X1317Y1886D01*
X1778Y1886D02*
X1831Y1886D01*
X1863Y1886D02*
X1917Y1886D01*
X1178Y1885D02*
X1230Y1885D01*
X1264Y1885D02*
X1317Y1885D01*
X1778Y1885D02*
X1830Y1885D01*
X1864Y1885D02*
X1917Y1885D01*
X1178Y1884D02*
X1229Y1884D01*
X1265Y1884D02*
X1317Y1884D01*
X1778Y1884D02*
X1829Y1884D01*
X1865Y1884D02*
X1917Y1884D01*
X1178Y1883D02*
X1228Y1883D01*
X1266Y1883D02*
X1317Y1883D01*
X1778Y1883D02*
X1828Y1883D01*
X1866Y1883D02*
X1917Y1883D01*
X1178Y1882D02*
X1228Y1882D01*
X1267Y1882D02*
X1317Y1882D01*
X1778Y1882D02*
X1827Y1882D01*
X1867Y1882D02*
X1917Y1882D01*
X1178Y1881D02*
X1227Y1881D01*
X1268Y1881D02*
X1317Y1881D01*
X1778Y1881D02*
X1827Y1881D01*
X1868Y1881D02*
X1917Y1881D01*
X1178Y1880D02*
X1226Y1880D01*
X1268Y1880D02*
X1317Y1880D01*
X1778Y1880D02*
X1826Y1880D01*
X1868Y1880D02*
X1917Y1880D01*
X1178Y1879D02*
X1226Y1879D01*
X1269Y1879D02*
X1317Y1879D01*
X1778Y1879D02*
X1826Y1879D01*
X1869Y1879D02*
X1917Y1879D01*
X1178Y1878D02*
X1225Y1878D01*
X1269Y1878D02*
X1317Y1878D01*
X1778Y1878D02*
X1825Y1878D01*
X1869Y1878D02*
X1917Y1878D01*
X1178Y1877D02*
X1225Y1877D01*
X1270Y1877D02*
X1317Y1877D01*
X1778Y1877D02*
X1824Y1877D01*
X1870Y1877D02*
X1917Y1877D01*
X1178Y1876D02*
X1224Y1876D01*
X1270Y1876D02*
X1317Y1876D01*
X1778Y1876D02*
X1824Y1876D01*
X1870Y1876D02*
X1917Y1876D01*
X1178Y1875D02*
X1224Y1875D01*
X1271Y1875D02*
X1317Y1875D01*
X1778Y1875D02*
X1824Y1875D01*
X1871Y1875D02*
X1917Y1875D01*
X1178Y1874D02*
X1224Y1874D01*
X1271Y1874D02*
X1317Y1874D01*
X1778Y1874D02*
X1823Y1874D01*
X1871Y1874D02*
X1917Y1874D01*
X1178Y1873D02*
X1223Y1873D01*
X1271Y1873D02*
X1317Y1873D01*
X1778Y1873D02*
X1823Y1873D01*
X1871Y1873D02*
X1917Y1873D01*
X1178Y1872D02*
X1223Y1872D01*
X1272Y1872D02*
X1317Y1872D01*
X1778Y1872D02*
X1823Y1872D01*
X1872Y1872D02*
X1917Y1872D01*
X1178Y1871D02*
X1223Y1871D01*
X1272Y1871D02*
X1317Y1871D01*
X1778Y1871D02*
X1823Y1871D01*
X1872Y1871D02*
X1917Y1871D01*
X1178Y1870D02*
X1223Y1870D01*
X1272Y1870D02*
X1317Y1870D01*
X1778Y1870D02*
X1823Y1870D01*
X1872Y1870D02*
X1917Y1870D01*
X1178Y1869D02*
X1223Y1869D01*
X1272Y1869D02*
X1317Y1869D01*
X1778Y1869D02*
X1823Y1869D01*
X1872Y1869D02*
X1917Y1869D01*
X1178Y1868D02*
X1223Y1868D01*
X1272Y1868D02*
X1317Y1868D01*
X1778Y1868D02*
X1823Y1868D01*
X1872Y1868D02*
X1917Y1868D01*
X1178Y1867D02*
X1223Y1867D01*
X1272Y1867D02*
X1317Y1867D01*
X1778Y1867D02*
X1823Y1867D01*
X1872Y1867D02*
X1917Y1867D01*
X1178Y1866D02*
X1223Y1866D01*
X1272Y1866D02*
X1317Y1866D01*
X1778Y1866D02*
X1823Y1866D01*
X1872Y1866D02*
X1917Y1866D01*
X1178Y1865D02*
X1223Y1865D01*
X1272Y1865D02*
X1317Y1865D01*
X1778Y1865D02*
X1823Y1865D01*
X1872Y1865D02*
X1917Y1865D01*
X1178Y1864D02*
X1223Y1864D01*
X1272Y1864D02*
X1317Y1864D01*
X1778Y1864D02*
X1823Y1864D01*
X1872Y1864D02*
X1917Y1864D01*
X1178Y1863D02*
X1223Y1863D01*
X1272Y1863D02*
X1317Y1863D01*
X1778Y1863D02*
X1823Y1863D01*
X1872Y1863D02*
X1917Y1863D01*
X1178Y1862D02*
X1223Y1862D01*
X1271Y1862D02*
X1317Y1862D01*
X1778Y1862D02*
X1823Y1862D01*
X1871Y1862D02*
X1917Y1862D01*
X1178Y1861D02*
X1224Y1861D01*
X1271Y1861D02*
X1317Y1861D01*
X1778Y1861D02*
X1824Y1861D01*
X1871Y1861D02*
X1917Y1861D01*
X1178Y1860D02*
X1224Y1860D01*
X1271Y1860D02*
X1317Y1860D01*
X1778Y1860D02*
X1824Y1860D01*
X1871Y1860D02*
X1917Y1860D01*
X1178Y1859D02*
X1224Y1859D01*
X1271Y1859D02*
X1317Y1859D01*
X1778Y1859D02*
X1824Y1859D01*
X1871Y1859D02*
X1917Y1859D01*
X1178Y1858D02*
X1224Y1858D01*
X1270Y1858D02*
X1317Y1858D01*
X1778Y1858D02*
X1824Y1858D01*
X1870Y1858D02*
X1917Y1858D01*
X1178Y1857D02*
X1225Y1857D01*
X1270Y1857D02*
X1317Y1857D01*
X1778Y1857D02*
X1825Y1857D01*
X1870Y1857D02*
X1917Y1857D01*
X1178Y1856D02*
X1226Y1856D01*
X1269Y1856D02*
X1317Y1856D01*
X1778Y1856D02*
X1826Y1856D01*
X1869Y1856D02*
X1917Y1856D01*
X1178Y1855D02*
X1226Y1855D01*
X1269Y1855D02*
X1317Y1855D01*
X1778Y1855D02*
X1826Y1855D01*
X1869Y1855D02*
X1917Y1855D01*
X1178Y1854D02*
X1227Y1854D01*
X1268Y1854D02*
X1317Y1854D01*
X1778Y1854D02*
X1827Y1854D01*
X1868Y1854D02*
X1917Y1854D01*
X1178Y1853D02*
X1227Y1853D01*
X1267Y1853D02*
X1317Y1853D01*
X1778Y1853D02*
X1827Y1853D01*
X1867Y1853D02*
X1917Y1853D01*
X1178Y1852D02*
X1228Y1852D01*
X1266Y1852D02*
X1317Y1852D01*
X1778Y1852D02*
X1828Y1852D01*
X1866Y1852D02*
X1917Y1852D01*
X1178Y1851D02*
X1229Y1851D01*
X1266Y1851D02*
X1317Y1851D01*
X1778Y1851D02*
X1829Y1851D01*
X1866Y1851D02*
X1917Y1851D01*
X1178Y1850D02*
X1230Y1850D01*
X1265Y1850D02*
X1317Y1850D01*
X1778Y1850D02*
X1830Y1850D01*
X1865Y1850D02*
X1917Y1850D01*
X1178Y1849D02*
X1231Y1849D01*
X1264Y1849D02*
X1317Y1849D01*
X1778Y1849D02*
X1831Y1849D01*
X1864Y1849D02*
X1917Y1849D01*
X1178Y1848D02*
X1232Y1848D01*
X1262Y1848D02*
X1317Y1848D01*
X1778Y1848D02*
X1832Y1848D01*
X1862Y1848D02*
X1917Y1848D01*
X1178Y1847D02*
X1234Y1847D01*
X1261Y1847D02*
X1317Y1847D01*
X1778Y1847D02*
X1834Y1847D01*
X1861Y1847D02*
X1917Y1847D01*
X1178Y1846D02*
X1235Y1846D01*
X1259Y1846D02*
X1317Y1846D01*
X1778Y1846D02*
X1835Y1846D01*
X1859Y1846D02*
X1917Y1846D01*
X1178Y1845D02*
X1237Y1845D01*
X1258Y1845D02*
X1317Y1845D01*
X1778Y1845D02*
X1837Y1845D01*
X1858Y1845D02*
X1917Y1845D01*
X1178Y1844D02*
X1240Y1844D01*
X1255Y1844D02*
X1317Y1844D01*
X1778Y1844D02*
X1840Y1844D01*
X1855Y1844D02*
X1917Y1844D01*
X1178Y1843D02*
X1317Y1843D01*
X1778Y1843D02*
X1917Y1843D01*
X1178Y1842D02*
X1317Y1842D01*
X1778Y1842D02*
X1917Y1842D01*
X1178Y1841D02*
X1317Y1841D01*
X1778Y1841D02*
X1917Y1841D01*
X1178Y1840D02*
X1317Y1840D01*
X1778Y1840D02*
X1917Y1840D01*
X1178Y1839D02*
X1317Y1839D01*
X1778Y1839D02*
X1917Y1839D01*
X1178Y1838D02*
X1317Y1838D01*
X1778Y1838D02*
X1917Y1838D01*
X1178Y1837D02*
X1317Y1837D01*
X1778Y1837D02*
X1917Y1837D01*
X1178Y1836D02*
X1317Y1836D01*
X1778Y1836D02*
X1917Y1836D01*
X1178Y1835D02*
X1317Y1835D01*
X1778Y1835D02*
X1917Y1835D01*
X1178Y1834D02*
X1317Y1834D01*
X1778Y1834D02*
X1917Y1834D01*
X1178Y1833D02*
X1317Y1833D01*
X1778Y1833D02*
X1917Y1833D01*
X1243Y1801D02*
X1251Y1801D01*
X1843Y1801D02*
X1851Y1801D01*
X1237Y1800D02*
X1258Y1800D01*
X1837Y1800D02*
X1858Y1800D01*
X1178Y1799D02*
X1317Y1799D01*
X1778Y1799D02*
X1917Y1799D01*
X1178Y1798D02*
X1317Y1798D01*
X1778Y1798D02*
X1917Y1798D01*
X1178Y1797D02*
X1317Y1797D01*
X1778Y1797D02*
X1917Y1797D01*
X1178Y1796D02*
X1317Y1796D01*
X1778Y1796D02*
X1917Y1796D01*
X1178Y1795D02*
X1317Y1795D01*
X1778Y1795D02*
X1917Y1795D01*
X1178Y1794D02*
X1317Y1794D01*
X1778Y1794D02*
X1917Y1794D01*
X1178Y1793D02*
X1317Y1793D01*
X1778Y1793D02*
X1917Y1793D01*
X1178Y1792D02*
X1317Y1792D01*
X1778Y1792D02*
X1917Y1792D01*
X1178Y1791D02*
X1317Y1791D01*
X1778Y1791D02*
X1917Y1791D01*
X1178Y1790D02*
X1317Y1790D01*
X1778Y1790D02*
X1917Y1790D01*
X1178Y1789D02*
X1236Y1789D01*
X1258Y1789D02*
X1317Y1789D01*
X1778Y1789D02*
X1836Y1789D01*
X1858Y1789D02*
X1917Y1789D01*
X1178Y1788D02*
X1234Y1788D01*
X1260Y1788D02*
X1317Y1788D01*
X1778Y1788D02*
X1834Y1788D01*
X1860Y1788D02*
X1917Y1788D01*
X1178Y1787D02*
X1233Y1787D01*
X1262Y1787D02*
X1317Y1787D01*
X1778Y1787D02*
X1833Y1787D01*
X1862Y1787D02*
X1917Y1787D01*
X1178Y1786D02*
X1231Y1786D01*
X1263Y1786D02*
X1317Y1786D01*
X1778Y1786D02*
X1831Y1786D01*
X1863Y1786D02*
X1917Y1786D01*
X1178Y1785D02*
X1230Y1785D01*
X1264Y1785D02*
X1317Y1785D01*
X1778Y1785D02*
X1830Y1785D01*
X1864Y1785D02*
X1917Y1785D01*
X1178Y1784D02*
X1229Y1784D01*
X1265Y1784D02*
X1317Y1784D01*
X1778Y1784D02*
X1829Y1784D01*
X1865Y1784D02*
X1917Y1784D01*
X1178Y1783D02*
X1228Y1783D01*
X1266Y1783D02*
X1317Y1783D01*
X1778Y1783D02*
X1828Y1783D01*
X1866Y1783D02*
X1917Y1783D01*
X1178Y1782D02*
X1228Y1782D01*
X1267Y1782D02*
X1317Y1782D01*
X1778Y1782D02*
X1827Y1782D01*
X1867Y1782D02*
X1917Y1782D01*
X1178Y1781D02*
X1227Y1781D01*
X1268Y1781D02*
X1317Y1781D01*
X1778Y1781D02*
X1827Y1781D01*
X1868Y1781D02*
X1917Y1781D01*
X1178Y1780D02*
X1226Y1780D01*
X1268Y1780D02*
X1317Y1780D01*
X1778Y1780D02*
X1826Y1780D01*
X1868Y1780D02*
X1917Y1780D01*
X1178Y1779D02*
X1226Y1779D01*
X1269Y1779D02*
X1317Y1779D01*
X1778Y1779D02*
X1826Y1779D01*
X1869Y1779D02*
X1917Y1779D01*
X1178Y1778D02*
X1225Y1778D01*
X1269Y1778D02*
X1317Y1778D01*
X1778Y1778D02*
X1825Y1778D01*
X1869Y1778D02*
X1917Y1778D01*
X1178Y1777D02*
X1225Y1777D01*
X1270Y1777D02*
X1317Y1777D01*
X1778Y1777D02*
X1824Y1777D01*
X1870Y1777D02*
X1917Y1777D01*
X1178Y1776D02*
X1224Y1776D01*
X1270Y1776D02*
X1317Y1776D01*
X1778Y1776D02*
X1824Y1776D01*
X1870Y1776D02*
X1917Y1776D01*
X1178Y1775D02*
X1224Y1775D01*
X1271Y1775D02*
X1317Y1775D01*
X1778Y1775D02*
X1824Y1775D01*
X1871Y1775D02*
X1917Y1775D01*
X1178Y1774D02*
X1224Y1774D01*
X1271Y1774D02*
X1317Y1774D01*
X1778Y1774D02*
X1823Y1774D01*
X1871Y1774D02*
X1917Y1774D01*
X1178Y1773D02*
X1223Y1773D01*
X1271Y1773D02*
X1317Y1773D01*
X1778Y1773D02*
X1823Y1773D01*
X1871Y1773D02*
X1917Y1773D01*
X1178Y1772D02*
X1223Y1772D01*
X1272Y1772D02*
X1317Y1772D01*
X1778Y1772D02*
X1823Y1772D01*
X1872Y1772D02*
X1917Y1772D01*
X1178Y1771D02*
X1223Y1771D01*
X1272Y1771D02*
X1317Y1771D01*
X1778Y1771D02*
X1823Y1771D01*
X1872Y1771D02*
X1917Y1771D01*
X1178Y1770D02*
X1223Y1770D01*
X1272Y1770D02*
X1317Y1770D01*
X1778Y1770D02*
X1823Y1770D01*
X1872Y1770D02*
X1917Y1770D01*
X1178Y1769D02*
X1223Y1769D01*
X1272Y1769D02*
X1317Y1769D01*
X1778Y1769D02*
X1823Y1769D01*
X1872Y1769D02*
X1917Y1769D01*
X1178Y1768D02*
X1223Y1768D01*
X1272Y1768D02*
X1317Y1768D01*
X1778Y1768D02*
X1823Y1768D01*
X1872Y1768D02*
X1917Y1768D01*
X1178Y1767D02*
X1223Y1767D01*
X1272Y1767D02*
X1317Y1767D01*
X1778Y1767D02*
X1823Y1767D01*
X1872Y1767D02*
X1917Y1767D01*
X1178Y1766D02*
X1223Y1766D01*
X1272Y1766D02*
X1317Y1766D01*
X1778Y1766D02*
X1823Y1766D01*
X1872Y1766D02*
X1917Y1766D01*
X1178Y1765D02*
X1223Y1765D01*
X1272Y1765D02*
X1317Y1765D01*
X1778Y1765D02*
X1823Y1765D01*
X1872Y1765D02*
X1917Y1765D01*
X1178Y1764D02*
X1223Y1764D01*
X1272Y1764D02*
X1317Y1764D01*
X1778Y1764D02*
X1823Y1764D01*
X1872Y1764D02*
X1917Y1764D01*
X1178Y1763D02*
X1223Y1763D01*
X1272Y1763D02*
X1317Y1763D01*
X1778Y1763D02*
X1823Y1763D01*
X1872Y1763D02*
X1917Y1763D01*
X1178Y1762D02*
X1223Y1762D01*
X1271Y1762D02*
X1317Y1762D01*
X1778Y1762D02*
X1823Y1762D01*
X1871Y1762D02*
X1917Y1762D01*
X1178Y1761D02*
X1224Y1761D01*
X1271Y1761D02*
X1317Y1761D01*
X1778Y1761D02*
X1824Y1761D01*
X1871Y1761D02*
X1917Y1761D01*
X1178Y1760D02*
X1224Y1760D01*
X1271Y1760D02*
X1317Y1760D01*
X1778Y1760D02*
X1824Y1760D01*
X1871Y1760D02*
X1917Y1760D01*
X1178Y1759D02*
X1224Y1759D01*
X1271Y1759D02*
X1317Y1759D01*
X1778Y1759D02*
X1824Y1759D01*
X1871Y1759D02*
X1917Y1759D01*
X1178Y1758D02*
X1225Y1758D01*
X1270Y1758D02*
X1317Y1758D01*
X1778Y1758D02*
X1824Y1758D01*
X1870Y1758D02*
X1917Y1758D01*
X1178Y1757D02*
X1225Y1757D01*
X1270Y1757D02*
X1317Y1757D01*
X1778Y1757D02*
X1825Y1757D01*
X1870Y1757D02*
X1917Y1757D01*
X1178Y1756D02*
X1226Y1756D01*
X1269Y1756D02*
X1317Y1756D01*
X1778Y1756D02*
X1826Y1756D01*
X1869Y1756D02*
X1917Y1756D01*
X1178Y1755D02*
X1226Y1755D01*
X1269Y1755D02*
X1317Y1755D01*
X1778Y1755D02*
X1826Y1755D01*
X1869Y1755D02*
X1917Y1755D01*
X1178Y1754D02*
X1227Y1754D01*
X1268Y1754D02*
X1317Y1754D01*
X1778Y1754D02*
X1827Y1754D01*
X1868Y1754D02*
X1917Y1754D01*
X1178Y1753D02*
X1227Y1753D01*
X1267Y1753D02*
X1317Y1753D01*
X1778Y1753D02*
X1827Y1753D01*
X1867Y1753D02*
X1917Y1753D01*
X1178Y1752D02*
X1228Y1752D01*
X1266Y1752D02*
X1317Y1752D01*
X1778Y1752D02*
X1828Y1752D01*
X1866Y1752D02*
X1917Y1752D01*
X1178Y1751D02*
X1229Y1751D01*
X1266Y1751D02*
X1317Y1751D01*
X1778Y1751D02*
X1829Y1751D01*
X1866Y1751D02*
X1917Y1751D01*
X1178Y1750D02*
X1230Y1750D01*
X1265Y1750D02*
X1317Y1750D01*
X1778Y1750D02*
X1830Y1750D01*
X1865Y1750D02*
X1917Y1750D01*
X1178Y1749D02*
X1231Y1749D01*
X1264Y1749D02*
X1317Y1749D01*
X1778Y1749D02*
X1831Y1749D01*
X1864Y1749D02*
X1917Y1749D01*
X1178Y1748D02*
X1232Y1748D01*
X1262Y1748D02*
X1317Y1748D01*
X1778Y1748D02*
X1832Y1748D01*
X1862Y1748D02*
X1917Y1748D01*
X1178Y1747D02*
X1234Y1747D01*
X1261Y1747D02*
X1317Y1747D01*
X1778Y1747D02*
X1834Y1747D01*
X1861Y1747D02*
X1917Y1747D01*
X1178Y1746D02*
X1235Y1746D01*
X1259Y1746D02*
X1317Y1746D01*
X1778Y1746D02*
X1835Y1746D01*
X1859Y1746D02*
X1917Y1746D01*
X1178Y1745D02*
X1237Y1745D01*
X1258Y1745D02*
X1317Y1745D01*
X1778Y1745D02*
X1837Y1745D01*
X1858Y1745D02*
X1917Y1745D01*
X1178Y1744D02*
X1240Y1744D01*
X1255Y1744D02*
X1317Y1744D01*
X1778Y1744D02*
X1840Y1744D01*
X1855Y1744D02*
X1917Y1744D01*
X1178Y1743D02*
X1317Y1743D01*
X1778Y1743D02*
X1917Y1743D01*
X1178Y1742D02*
X1317Y1742D01*
X1778Y1742D02*
X1917Y1742D01*
X1178Y1741D02*
X1317Y1741D01*
X1778Y1741D02*
X1917Y1741D01*
X1178Y1740D02*
X1317Y1740D01*
X1778Y1740D02*
X1917Y1740D01*
X1178Y1739D02*
X1317Y1739D01*
X1778Y1739D02*
X1917Y1739D01*
X1178Y1738D02*
X1317Y1738D01*
X1778Y1738D02*
X1917Y1738D01*
X1178Y1737D02*
X1317Y1737D01*
X1778Y1737D02*
X1917Y1737D01*
X1178Y1736D02*
X1317Y1736D01*
X1778Y1736D02*
X1917Y1736D01*
X1178Y1735D02*
X1317Y1735D01*
X1778Y1735D02*
X1917Y1735D01*
X1178Y1734D02*
X1317Y1734D01*
X1778Y1734D02*
X1917Y1734D01*
X1178Y1733D02*
X1317Y1733D01*
X1778Y1733D02*
X1917Y1733D01*
X1243Y1701D02*
X1251Y1701D01*
X1843Y1701D02*
X1851Y1701D01*
X1237Y1700D02*
X1258Y1700D01*
X1837Y1700D02*
X1858Y1700D01*
X1178Y1699D02*
X1317Y1699D01*
X1778Y1699D02*
X1917Y1699D01*
X1178Y1698D02*
X1317Y1698D01*
X1778Y1698D02*
X1917Y1698D01*
X1178Y1697D02*
X1317Y1697D01*
X1778Y1697D02*
X1917Y1697D01*
X1178Y1696D02*
X1317Y1696D01*
X1778Y1696D02*
X1917Y1696D01*
X1178Y1695D02*
X1317Y1695D01*
X1778Y1695D02*
X1917Y1695D01*
X1178Y1694D02*
X1317Y1694D01*
X1778Y1694D02*
X1917Y1694D01*
X1178Y1693D02*
X1317Y1693D01*
X1778Y1693D02*
X1917Y1693D01*
X1178Y1692D02*
X1317Y1692D01*
X1778Y1692D02*
X1917Y1692D01*
X1178Y1691D02*
X1317Y1691D01*
X1778Y1691D02*
X1917Y1691D01*
X1178Y1690D02*
X1317Y1690D01*
X1778Y1690D02*
X1917Y1690D01*
X1178Y1689D02*
X1236Y1689D01*
X1258Y1689D02*
X1317Y1689D01*
X1778Y1689D02*
X1836Y1689D01*
X1858Y1689D02*
X1917Y1689D01*
X1178Y1688D02*
X1234Y1688D01*
X1260Y1688D02*
X1317Y1688D01*
X1778Y1688D02*
X1834Y1688D01*
X1860Y1688D02*
X1917Y1688D01*
X1178Y1687D02*
X1233Y1687D01*
X1262Y1687D02*
X1317Y1687D01*
X1778Y1687D02*
X1833Y1687D01*
X1862Y1687D02*
X1917Y1687D01*
X1178Y1686D02*
X1231Y1686D01*
X1263Y1686D02*
X1317Y1686D01*
X1778Y1686D02*
X1831Y1686D01*
X1863Y1686D02*
X1917Y1686D01*
X1178Y1685D02*
X1230Y1685D01*
X1264Y1685D02*
X1317Y1685D01*
X1778Y1685D02*
X1830Y1685D01*
X1864Y1685D02*
X1917Y1685D01*
X1178Y1684D02*
X1229Y1684D01*
X1265Y1684D02*
X1317Y1684D01*
X1778Y1684D02*
X1829Y1684D01*
X1865Y1684D02*
X1917Y1684D01*
X1178Y1683D02*
X1228Y1683D01*
X1266Y1683D02*
X1317Y1683D01*
X1778Y1683D02*
X1828Y1683D01*
X1866Y1683D02*
X1917Y1683D01*
X1178Y1682D02*
X1228Y1682D01*
X1267Y1682D02*
X1317Y1682D01*
X1778Y1682D02*
X1827Y1682D01*
X1867Y1682D02*
X1917Y1682D01*
X1178Y1681D02*
X1227Y1681D01*
X1268Y1681D02*
X1317Y1681D01*
X1778Y1681D02*
X1827Y1681D01*
X1868Y1681D02*
X1917Y1681D01*
X1178Y1680D02*
X1226Y1680D01*
X1268Y1680D02*
X1317Y1680D01*
X1778Y1680D02*
X1826Y1680D01*
X1868Y1680D02*
X1917Y1680D01*
X1178Y1679D02*
X1226Y1679D01*
X1269Y1679D02*
X1317Y1679D01*
X1778Y1679D02*
X1826Y1679D01*
X1869Y1679D02*
X1917Y1679D01*
X1178Y1678D02*
X1225Y1678D01*
X1269Y1678D02*
X1317Y1678D01*
X1778Y1678D02*
X1825Y1678D01*
X1869Y1678D02*
X1917Y1678D01*
X1178Y1677D02*
X1225Y1677D01*
X1270Y1677D02*
X1317Y1677D01*
X1778Y1677D02*
X1824Y1677D01*
X1870Y1677D02*
X1917Y1677D01*
X1178Y1676D02*
X1224Y1676D01*
X1270Y1676D02*
X1317Y1676D01*
X1778Y1676D02*
X1824Y1676D01*
X1870Y1676D02*
X1917Y1676D01*
X1178Y1675D02*
X1224Y1675D01*
X1271Y1675D02*
X1317Y1675D01*
X1778Y1675D02*
X1824Y1675D01*
X1871Y1675D02*
X1917Y1675D01*
X1178Y1674D02*
X1224Y1674D01*
X1271Y1674D02*
X1317Y1674D01*
X1778Y1674D02*
X1823Y1674D01*
X1871Y1674D02*
X1917Y1674D01*
X1178Y1673D02*
X1223Y1673D01*
X1271Y1673D02*
X1317Y1673D01*
X1778Y1673D02*
X1823Y1673D01*
X1871Y1673D02*
X1917Y1673D01*
X1178Y1672D02*
X1223Y1672D01*
X1272Y1672D02*
X1317Y1672D01*
X1778Y1672D02*
X1823Y1672D01*
X1872Y1672D02*
X1917Y1672D01*
X1178Y1671D02*
X1223Y1671D01*
X1272Y1671D02*
X1317Y1671D01*
X1778Y1671D02*
X1823Y1671D01*
X1872Y1671D02*
X1917Y1671D01*
X1178Y1670D02*
X1223Y1670D01*
X1272Y1670D02*
X1317Y1670D01*
X1778Y1670D02*
X1823Y1670D01*
X1872Y1670D02*
X1917Y1670D01*
X1178Y1669D02*
X1223Y1669D01*
X1272Y1669D02*
X1317Y1669D01*
X1778Y1669D02*
X1823Y1669D01*
X1872Y1669D02*
X1917Y1669D01*
X1178Y1668D02*
X1223Y1668D01*
X1272Y1668D02*
X1317Y1668D01*
X1778Y1668D02*
X1823Y1668D01*
X1872Y1668D02*
X1917Y1668D01*
X1178Y1667D02*
X1223Y1667D01*
X1272Y1667D02*
X1317Y1667D01*
X1778Y1667D02*
X1823Y1667D01*
X1872Y1667D02*
X1917Y1667D01*
X1178Y1666D02*
X1223Y1666D01*
X1272Y1666D02*
X1317Y1666D01*
X1778Y1666D02*
X1823Y1666D01*
X1872Y1666D02*
X1917Y1666D01*
X1178Y1665D02*
X1223Y1665D01*
X1272Y1665D02*
X1317Y1665D01*
X1778Y1665D02*
X1823Y1665D01*
X1872Y1665D02*
X1917Y1665D01*
X1178Y1664D02*
X1223Y1664D01*
X1272Y1664D02*
X1317Y1664D01*
X1778Y1664D02*
X1823Y1664D01*
X1872Y1664D02*
X1917Y1664D01*
X1178Y1663D02*
X1223Y1663D01*
X1272Y1663D02*
X1317Y1663D01*
X1778Y1663D02*
X1823Y1663D01*
X1872Y1663D02*
X1917Y1663D01*
X1178Y1662D02*
X1223Y1662D01*
X1271Y1662D02*
X1317Y1662D01*
X1778Y1662D02*
X1823Y1662D01*
X1871Y1662D02*
X1917Y1662D01*
X1178Y1661D02*
X1224Y1661D01*
X1271Y1661D02*
X1317Y1661D01*
X1778Y1661D02*
X1824Y1661D01*
X1871Y1661D02*
X1917Y1661D01*
X1178Y1660D02*
X1224Y1660D01*
X1271Y1660D02*
X1317Y1660D01*
X1778Y1660D02*
X1824Y1660D01*
X1871Y1660D02*
X1917Y1660D01*
X1178Y1659D02*
X1224Y1659D01*
X1271Y1659D02*
X1317Y1659D01*
X1778Y1659D02*
X1824Y1659D01*
X1871Y1659D02*
X1917Y1659D01*
X1178Y1658D02*
X1225Y1658D01*
X1270Y1658D02*
X1317Y1658D01*
X1778Y1658D02*
X1824Y1658D01*
X1870Y1658D02*
X1917Y1658D01*
X1178Y1657D02*
X1225Y1657D01*
X1270Y1657D02*
X1317Y1657D01*
X1778Y1657D02*
X1825Y1657D01*
X1870Y1657D02*
X1917Y1657D01*
X1178Y1656D02*
X1226Y1656D01*
X1269Y1656D02*
X1317Y1656D01*
X1778Y1656D02*
X1826Y1656D01*
X1869Y1656D02*
X1917Y1656D01*
X1178Y1655D02*
X1226Y1655D01*
X1269Y1655D02*
X1317Y1655D01*
X1778Y1655D02*
X1826Y1655D01*
X1869Y1655D02*
X1917Y1655D01*
X1178Y1654D02*
X1227Y1654D01*
X1268Y1654D02*
X1317Y1654D01*
X1778Y1654D02*
X1827Y1654D01*
X1868Y1654D02*
X1917Y1654D01*
X1178Y1653D02*
X1227Y1653D01*
X1267Y1653D02*
X1317Y1653D01*
X1778Y1653D02*
X1827Y1653D01*
X1867Y1653D02*
X1917Y1653D01*
X1178Y1652D02*
X1228Y1652D01*
X1266Y1652D02*
X1317Y1652D01*
X1778Y1652D02*
X1828Y1652D01*
X1866Y1652D02*
X1917Y1652D01*
X1178Y1651D02*
X1229Y1651D01*
X1266Y1651D02*
X1317Y1651D01*
X1778Y1651D02*
X1829Y1651D01*
X1866Y1651D02*
X1917Y1651D01*
X1178Y1650D02*
X1230Y1650D01*
X1265Y1650D02*
X1317Y1650D01*
X1778Y1650D02*
X1830Y1650D01*
X1865Y1650D02*
X1917Y1650D01*
X1178Y1649D02*
X1231Y1649D01*
X1264Y1649D02*
X1317Y1649D01*
X1778Y1649D02*
X1831Y1649D01*
X1864Y1649D02*
X1917Y1649D01*
X1178Y1648D02*
X1232Y1648D01*
X1262Y1648D02*
X1317Y1648D01*
X1778Y1648D02*
X1832Y1648D01*
X1862Y1648D02*
X1917Y1648D01*
X1178Y1647D02*
X1234Y1647D01*
X1261Y1647D02*
X1317Y1647D01*
X1778Y1647D02*
X1834Y1647D01*
X1861Y1647D02*
X1917Y1647D01*
X1178Y1646D02*
X1235Y1646D01*
X1259Y1646D02*
X1317Y1646D01*
X1778Y1646D02*
X1835Y1646D01*
X1859Y1646D02*
X1917Y1646D01*
X1178Y1645D02*
X1237Y1645D01*
X1258Y1645D02*
X1317Y1645D01*
X1778Y1645D02*
X1837Y1645D01*
X1858Y1645D02*
X1917Y1645D01*
X1178Y1644D02*
X1240Y1644D01*
X1255Y1644D02*
X1317Y1644D01*
X1778Y1644D02*
X1840Y1644D01*
X1855Y1644D02*
X1917Y1644D01*
X1178Y1643D02*
X1317Y1643D01*
X1778Y1643D02*
X1917Y1643D01*
X1178Y1642D02*
X1317Y1642D01*
X1778Y1642D02*
X1917Y1642D01*
X1178Y1641D02*
X1317Y1641D01*
X1778Y1641D02*
X1917Y1641D01*
X1178Y1640D02*
X1317Y1640D01*
X1778Y1640D02*
X1917Y1640D01*
X1178Y1639D02*
X1317Y1639D01*
X1778Y1639D02*
X1917Y1639D01*
X1178Y1638D02*
X1317Y1638D01*
X1778Y1638D02*
X1917Y1638D01*
X1178Y1637D02*
X1317Y1637D01*
X1778Y1637D02*
X1917Y1637D01*
X1178Y1636D02*
X1317Y1636D01*
X1778Y1636D02*
X1917Y1636D01*
X1178Y1635D02*
X1317Y1635D01*
X1778Y1635D02*
X1917Y1635D01*
X1178Y1634D02*
X1317Y1634D01*
X1778Y1634D02*
X1917Y1634D01*
X1243Y1633D02*
X1252Y1633D01*
X1842Y1633D02*
X1852Y1633D01*
X1243Y1601D02*
X1251Y1601D01*
X1843Y1601D02*
X1851Y1601D01*
X1237Y1600D02*
X1258Y1600D01*
X1837Y1600D02*
X1858Y1600D01*
X1178Y1599D02*
X1317Y1599D01*
X1778Y1599D02*
X1917Y1599D01*
X1178Y1598D02*
X1317Y1598D01*
X1778Y1598D02*
X1917Y1598D01*
X1178Y1597D02*
X1317Y1597D01*
X1778Y1597D02*
X1917Y1597D01*
X1178Y1596D02*
X1317Y1596D01*
X1778Y1596D02*
X1917Y1596D01*
X1178Y1595D02*
X1317Y1595D01*
X1778Y1595D02*
X1917Y1595D01*
X1178Y1594D02*
X1317Y1594D01*
X1778Y1594D02*
X1917Y1594D01*
X1178Y1593D02*
X1317Y1593D01*
X1778Y1593D02*
X1917Y1593D01*
X1178Y1592D02*
X1317Y1592D01*
X1778Y1592D02*
X1917Y1592D01*
X1178Y1591D02*
X1317Y1591D01*
X1778Y1591D02*
X1917Y1591D01*
X1178Y1590D02*
X1317Y1590D01*
X1778Y1590D02*
X1917Y1590D01*
X1178Y1589D02*
X1236Y1589D01*
X1258Y1589D02*
X1317Y1589D01*
X1778Y1589D02*
X1836Y1589D01*
X1858Y1589D02*
X1917Y1589D01*
X1178Y1588D02*
X1234Y1588D01*
X1260Y1588D02*
X1317Y1588D01*
X1778Y1588D02*
X1834Y1588D01*
X1860Y1588D02*
X1917Y1588D01*
X1178Y1587D02*
X1233Y1587D01*
X1262Y1587D02*
X1317Y1587D01*
X1778Y1587D02*
X1833Y1587D01*
X1862Y1587D02*
X1917Y1587D01*
X1178Y1586D02*
X1231Y1586D01*
X1263Y1586D02*
X1317Y1586D01*
X1778Y1586D02*
X1831Y1586D01*
X1863Y1586D02*
X1917Y1586D01*
X1178Y1585D02*
X1230Y1585D01*
X1264Y1585D02*
X1317Y1585D01*
X1778Y1585D02*
X1830Y1585D01*
X1864Y1585D02*
X1917Y1585D01*
X1178Y1584D02*
X1229Y1584D01*
X1265Y1584D02*
X1317Y1584D01*
X1778Y1584D02*
X1829Y1584D01*
X1865Y1584D02*
X1917Y1584D01*
X1178Y1583D02*
X1228Y1583D01*
X1266Y1583D02*
X1317Y1583D01*
X1778Y1583D02*
X1828Y1583D01*
X1866Y1583D02*
X1917Y1583D01*
X1178Y1582D02*
X1228Y1582D01*
X1267Y1582D02*
X1317Y1582D01*
X1778Y1582D02*
X1827Y1582D01*
X1867Y1582D02*
X1917Y1582D01*
X1178Y1581D02*
X1227Y1581D01*
X1268Y1581D02*
X1317Y1581D01*
X1778Y1581D02*
X1827Y1581D01*
X1868Y1581D02*
X1917Y1581D01*
X1178Y1580D02*
X1226Y1580D01*
X1268Y1580D02*
X1317Y1580D01*
X1778Y1580D02*
X1826Y1580D01*
X1868Y1580D02*
X1917Y1580D01*
X1178Y1579D02*
X1226Y1579D01*
X1269Y1579D02*
X1317Y1579D01*
X1778Y1579D02*
X1826Y1579D01*
X1869Y1579D02*
X1917Y1579D01*
X1178Y1578D02*
X1225Y1578D01*
X1269Y1578D02*
X1317Y1578D01*
X1778Y1578D02*
X1825Y1578D01*
X1869Y1578D02*
X1917Y1578D01*
X1178Y1577D02*
X1225Y1577D01*
X1270Y1577D02*
X1317Y1577D01*
X1778Y1577D02*
X1824Y1577D01*
X1870Y1577D02*
X1917Y1577D01*
X1178Y1576D02*
X1224Y1576D01*
X1270Y1576D02*
X1317Y1576D01*
X1778Y1576D02*
X1824Y1576D01*
X1870Y1576D02*
X1917Y1576D01*
X1178Y1575D02*
X1224Y1575D01*
X1271Y1575D02*
X1317Y1575D01*
X1778Y1575D02*
X1824Y1575D01*
X1871Y1575D02*
X1917Y1575D01*
X1178Y1574D02*
X1224Y1574D01*
X1271Y1574D02*
X1317Y1574D01*
X1778Y1574D02*
X1823Y1574D01*
X1871Y1574D02*
X1917Y1574D01*
X1178Y1573D02*
X1223Y1573D01*
X1271Y1573D02*
X1317Y1573D01*
X1778Y1573D02*
X1823Y1573D01*
X1871Y1573D02*
X1917Y1573D01*
X1178Y1572D02*
X1223Y1572D01*
X1272Y1572D02*
X1317Y1572D01*
X1778Y1572D02*
X1823Y1572D01*
X1872Y1572D02*
X1917Y1572D01*
X1178Y1571D02*
X1223Y1571D01*
X1272Y1571D02*
X1317Y1571D01*
X1778Y1571D02*
X1823Y1571D01*
X1872Y1571D02*
X1917Y1571D01*
X1178Y1570D02*
X1223Y1570D01*
X1272Y1570D02*
X1317Y1570D01*
X1778Y1570D02*
X1823Y1570D01*
X1872Y1570D02*
X1917Y1570D01*
X1178Y1569D02*
X1223Y1569D01*
X1272Y1569D02*
X1317Y1569D01*
X1778Y1569D02*
X1823Y1569D01*
X1872Y1569D02*
X1917Y1569D01*
X1178Y1568D02*
X1223Y1568D01*
X1272Y1568D02*
X1317Y1568D01*
X1778Y1568D02*
X1823Y1568D01*
X1872Y1568D02*
X1917Y1568D01*
X1178Y1567D02*
X1223Y1567D01*
X1272Y1567D02*
X1317Y1567D01*
X1778Y1567D02*
X1823Y1567D01*
X1872Y1567D02*
X1917Y1567D01*
X1178Y1566D02*
X1223Y1566D01*
X1272Y1566D02*
X1317Y1566D01*
X1778Y1566D02*
X1823Y1566D01*
X1872Y1566D02*
X1917Y1566D01*
X1178Y1565D02*
X1223Y1565D01*
X1272Y1565D02*
X1317Y1565D01*
X1778Y1565D02*
X1823Y1565D01*
X1872Y1565D02*
X1917Y1565D01*
X1178Y1564D02*
X1223Y1564D01*
X1272Y1564D02*
X1317Y1564D01*
X1778Y1564D02*
X1823Y1564D01*
X1872Y1564D02*
X1917Y1564D01*
X1178Y1563D02*
X1223Y1563D01*
X1272Y1563D02*
X1317Y1563D01*
X1778Y1563D02*
X1823Y1563D01*
X1872Y1563D02*
X1917Y1563D01*
X1178Y1562D02*
X1223Y1562D01*
X1271Y1562D02*
X1317Y1562D01*
X1778Y1562D02*
X1823Y1562D01*
X1871Y1562D02*
X1917Y1562D01*
X1178Y1561D02*
X1224Y1561D01*
X1271Y1561D02*
X1317Y1561D01*
X1778Y1561D02*
X1824Y1561D01*
X1871Y1561D02*
X1917Y1561D01*
X1178Y1560D02*
X1224Y1560D01*
X1271Y1560D02*
X1317Y1560D01*
X1778Y1560D02*
X1824Y1560D01*
X1871Y1560D02*
X1917Y1560D01*
X1178Y1559D02*
X1224Y1559D01*
X1271Y1559D02*
X1317Y1559D01*
X1778Y1559D02*
X1824Y1559D01*
X1871Y1559D02*
X1917Y1559D01*
X1178Y1558D02*
X1225Y1558D01*
X1270Y1558D02*
X1317Y1558D01*
X1778Y1558D02*
X1824Y1558D01*
X1870Y1558D02*
X1917Y1558D01*
X1178Y1557D02*
X1225Y1557D01*
X1270Y1557D02*
X1317Y1557D01*
X1778Y1557D02*
X1825Y1557D01*
X1870Y1557D02*
X1917Y1557D01*
X1178Y1556D02*
X1226Y1556D01*
X1269Y1556D02*
X1317Y1556D01*
X1778Y1556D02*
X1826Y1556D01*
X1869Y1556D02*
X1917Y1556D01*
X1178Y1555D02*
X1226Y1555D01*
X1269Y1555D02*
X1317Y1555D01*
X1778Y1555D02*
X1826Y1555D01*
X1869Y1555D02*
X1917Y1555D01*
X1178Y1554D02*
X1227Y1554D01*
X1268Y1554D02*
X1317Y1554D01*
X1778Y1554D02*
X1827Y1554D01*
X1868Y1554D02*
X1917Y1554D01*
X1178Y1553D02*
X1227Y1553D01*
X1267Y1553D02*
X1317Y1553D01*
X1778Y1553D02*
X1827Y1553D01*
X1867Y1553D02*
X1917Y1553D01*
X1178Y1552D02*
X1228Y1552D01*
X1266Y1552D02*
X1317Y1552D01*
X1778Y1552D02*
X1828Y1552D01*
X1866Y1552D02*
X1917Y1552D01*
X1178Y1551D02*
X1229Y1551D01*
X1266Y1551D02*
X1317Y1551D01*
X1778Y1551D02*
X1829Y1551D01*
X1866Y1551D02*
X1917Y1551D01*
X1178Y1550D02*
X1230Y1550D01*
X1265Y1550D02*
X1317Y1550D01*
X1778Y1550D02*
X1830Y1550D01*
X1865Y1550D02*
X1917Y1550D01*
X1178Y1549D02*
X1231Y1549D01*
X1264Y1549D02*
X1317Y1549D01*
X1778Y1549D02*
X1831Y1549D01*
X1863Y1549D02*
X1917Y1549D01*
X1178Y1548D02*
X1232Y1548D01*
X1262Y1548D02*
X1317Y1548D01*
X1778Y1548D02*
X1832Y1548D01*
X1862Y1548D02*
X1917Y1548D01*
X1178Y1547D02*
X1234Y1547D01*
X1261Y1547D02*
X1317Y1547D01*
X1778Y1547D02*
X1834Y1547D01*
X1861Y1547D02*
X1917Y1547D01*
X1178Y1546D02*
X1235Y1546D01*
X1259Y1546D02*
X1317Y1546D01*
X1778Y1546D02*
X1835Y1546D01*
X1859Y1546D02*
X1917Y1546D01*
X1178Y1545D02*
X1237Y1545D01*
X1258Y1545D02*
X1317Y1545D01*
X1778Y1545D02*
X1837Y1545D01*
X1858Y1545D02*
X1917Y1545D01*
X1178Y1544D02*
X1240Y1544D01*
X1255Y1544D02*
X1317Y1544D01*
X1778Y1544D02*
X1840Y1544D01*
X1855Y1544D02*
X1917Y1544D01*
X1178Y1543D02*
X1317Y1543D01*
X1778Y1543D02*
X1917Y1543D01*
X1178Y1542D02*
X1317Y1542D01*
X1778Y1542D02*
X1917Y1542D01*
X1178Y1541D02*
X1317Y1541D01*
X1778Y1541D02*
X1917Y1541D01*
X1178Y1540D02*
X1317Y1540D01*
X1778Y1540D02*
X1917Y1540D01*
X1178Y1539D02*
X1317Y1539D01*
X1778Y1539D02*
X1917Y1539D01*
X1178Y1538D02*
X1317Y1538D01*
X1778Y1538D02*
X1917Y1538D01*
X1178Y1537D02*
X1317Y1537D01*
X1778Y1537D02*
X1917Y1537D01*
X1178Y1536D02*
X1317Y1536D01*
X1778Y1536D02*
X1917Y1536D01*
X1178Y1535D02*
X1317Y1535D01*
X1778Y1535D02*
X1917Y1535D01*
X1178Y1534D02*
X1317Y1534D01*
X1778Y1534D02*
X1917Y1534D01*
X1243Y1533D02*
X1252Y1533D01*
X1842Y1533D02*
X1852Y1533D01*
X1243Y1501D02*
X1251Y1501D01*
X1843Y1501D02*
X1851Y1501D01*
X1237Y1500D02*
X1258Y1500D01*
X1837Y1500D02*
X1858Y1500D01*
X1178Y1499D02*
X1317Y1499D01*
X1778Y1499D02*
X1917Y1499D01*
X1178Y1498D02*
X1317Y1498D01*
X1778Y1498D02*
X1917Y1498D01*
X1178Y1497D02*
X1317Y1497D01*
X1778Y1497D02*
X1917Y1497D01*
X1178Y1496D02*
X1317Y1496D01*
X1778Y1496D02*
X1917Y1496D01*
X1178Y1495D02*
X1317Y1495D01*
X1778Y1495D02*
X1917Y1495D01*
X1178Y1494D02*
X1317Y1494D01*
X1778Y1494D02*
X1917Y1494D01*
X1178Y1493D02*
X1317Y1493D01*
X1778Y1493D02*
X1917Y1493D01*
X1178Y1492D02*
X1317Y1492D01*
X1778Y1492D02*
X1917Y1492D01*
X1178Y1491D02*
X1317Y1491D01*
X1778Y1491D02*
X1917Y1491D01*
X1178Y1490D02*
X1317Y1490D01*
X1778Y1490D02*
X1917Y1490D01*
X1178Y1489D02*
X1236Y1489D01*
X1258Y1489D02*
X1317Y1489D01*
X1778Y1489D02*
X1836Y1489D01*
X1858Y1489D02*
X1917Y1489D01*
X1178Y1488D02*
X1234Y1488D01*
X1260Y1488D02*
X1317Y1488D01*
X1778Y1488D02*
X1834Y1488D01*
X1860Y1488D02*
X1917Y1488D01*
X1178Y1487D02*
X1233Y1487D01*
X1262Y1487D02*
X1317Y1487D01*
X1778Y1487D02*
X1833Y1487D01*
X1862Y1487D02*
X1917Y1487D01*
X1178Y1486D02*
X1231Y1486D01*
X1263Y1486D02*
X1317Y1486D01*
X1778Y1486D02*
X1831Y1486D01*
X1863Y1486D02*
X1917Y1486D01*
X1178Y1485D02*
X1230Y1485D01*
X1264Y1485D02*
X1317Y1485D01*
X1778Y1485D02*
X1830Y1485D01*
X1864Y1485D02*
X1917Y1485D01*
X1178Y1484D02*
X1229Y1484D01*
X1265Y1484D02*
X1317Y1484D01*
X1778Y1484D02*
X1829Y1484D01*
X1865Y1484D02*
X1917Y1484D01*
X1178Y1483D02*
X1228Y1483D01*
X1266Y1483D02*
X1317Y1483D01*
X1778Y1483D02*
X1828Y1483D01*
X1866Y1483D02*
X1917Y1483D01*
X1178Y1482D02*
X1228Y1482D01*
X1267Y1482D02*
X1317Y1482D01*
X1778Y1482D02*
X1827Y1482D01*
X1867Y1482D02*
X1917Y1482D01*
X1178Y1481D02*
X1227Y1481D01*
X1268Y1481D02*
X1317Y1481D01*
X1778Y1481D02*
X1827Y1481D01*
X1868Y1481D02*
X1917Y1481D01*
X1178Y1480D02*
X1226Y1480D01*
X1268Y1480D02*
X1317Y1480D01*
X1778Y1480D02*
X1826Y1480D01*
X1868Y1480D02*
X1917Y1480D01*
X1178Y1479D02*
X1226Y1479D01*
X1269Y1479D02*
X1317Y1479D01*
X1778Y1479D02*
X1826Y1479D01*
X1869Y1479D02*
X1917Y1479D01*
X1178Y1478D02*
X1225Y1478D01*
X1269Y1478D02*
X1317Y1478D01*
X1778Y1478D02*
X1825Y1478D01*
X1869Y1478D02*
X1917Y1478D01*
X1178Y1477D02*
X1225Y1477D01*
X1270Y1477D02*
X1317Y1477D01*
X1778Y1477D02*
X1824Y1477D01*
X1870Y1477D02*
X1917Y1477D01*
X1178Y1476D02*
X1224Y1476D01*
X1270Y1476D02*
X1317Y1476D01*
X1778Y1476D02*
X1824Y1476D01*
X1870Y1476D02*
X1917Y1476D01*
X1178Y1475D02*
X1224Y1475D01*
X1271Y1475D02*
X1317Y1475D01*
X1778Y1475D02*
X1824Y1475D01*
X1871Y1475D02*
X1917Y1475D01*
X1178Y1474D02*
X1224Y1474D01*
X1271Y1474D02*
X1317Y1474D01*
X1778Y1474D02*
X1823Y1474D01*
X1871Y1474D02*
X1917Y1474D01*
X1178Y1473D02*
X1223Y1473D01*
X1271Y1473D02*
X1317Y1473D01*
X1778Y1473D02*
X1823Y1473D01*
X1871Y1473D02*
X1917Y1473D01*
X1178Y1472D02*
X1223Y1472D01*
X1272Y1472D02*
X1317Y1472D01*
X1778Y1472D02*
X1823Y1472D01*
X1872Y1472D02*
X1917Y1472D01*
X1178Y1471D02*
X1223Y1471D01*
X1272Y1471D02*
X1317Y1471D01*
X1778Y1471D02*
X1823Y1471D01*
X1872Y1471D02*
X1917Y1471D01*
X1178Y1470D02*
X1223Y1470D01*
X1272Y1470D02*
X1317Y1470D01*
X1778Y1470D02*
X1823Y1470D01*
X1872Y1470D02*
X1917Y1470D01*
X1178Y1469D02*
X1223Y1469D01*
X1272Y1469D02*
X1317Y1469D01*
X1778Y1469D02*
X1823Y1469D01*
X1872Y1469D02*
X1917Y1469D01*
X1178Y1468D02*
X1223Y1468D01*
X1272Y1468D02*
X1317Y1468D01*
X1778Y1468D02*
X1823Y1468D01*
X1872Y1468D02*
X1917Y1468D01*
X1178Y1467D02*
X1223Y1467D01*
X1272Y1467D02*
X1317Y1467D01*
X1778Y1467D02*
X1823Y1467D01*
X1872Y1467D02*
X1917Y1467D01*
X1178Y1466D02*
X1223Y1466D01*
X1272Y1466D02*
X1317Y1466D01*
X1778Y1466D02*
X1823Y1466D01*
X1872Y1466D02*
X1917Y1466D01*
X1178Y1465D02*
X1223Y1465D01*
X1272Y1465D02*
X1317Y1465D01*
X1778Y1465D02*
X1823Y1465D01*
X1872Y1465D02*
X1917Y1465D01*
X1178Y1464D02*
X1223Y1464D01*
X1272Y1464D02*
X1317Y1464D01*
X1778Y1464D02*
X1823Y1464D01*
X1872Y1464D02*
X1917Y1464D01*
X1178Y1463D02*
X1223Y1463D01*
X1272Y1463D02*
X1317Y1463D01*
X1778Y1463D02*
X1823Y1463D01*
X1872Y1463D02*
X1917Y1463D01*
X1178Y1462D02*
X1223Y1462D01*
X1271Y1462D02*
X1317Y1462D01*
X1778Y1462D02*
X1823Y1462D01*
X1871Y1462D02*
X1917Y1462D01*
X1178Y1461D02*
X1224Y1461D01*
X1271Y1461D02*
X1317Y1461D01*
X1778Y1461D02*
X1824Y1461D01*
X1871Y1461D02*
X1917Y1461D01*
X1178Y1460D02*
X1224Y1460D01*
X1271Y1460D02*
X1317Y1460D01*
X1778Y1460D02*
X1824Y1460D01*
X1871Y1460D02*
X1917Y1460D01*
X1178Y1459D02*
X1224Y1459D01*
X1270Y1459D02*
X1317Y1459D01*
X1778Y1459D02*
X1824Y1459D01*
X1870Y1459D02*
X1917Y1459D01*
X1178Y1458D02*
X1225Y1458D01*
X1270Y1458D02*
X1317Y1458D01*
X1778Y1458D02*
X1824Y1458D01*
X1870Y1458D02*
X1917Y1458D01*
X1178Y1457D02*
X1225Y1457D01*
X1269Y1457D02*
X1317Y1457D01*
X1778Y1457D02*
X1825Y1457D01*
X1869Y1457D02*
X1917Y1457D01*
X1178Y1456D02*
X1226Y1456D01*
X1269Y1456D02*
X1317Y1456D01*
X1778Y1456D02*
X1826Y1456D01*
X1869Y1456D02*
X1917Y1456D01*
X1178Y1455D02*
X1226Y1455D01*
X1268Y1455D02*
X1317Y1455D01*
X1778Y1455D02*
X1826Y1455D01*
X1868Y1455D02*
X1917Y1455D01*
X1178Y1454D02*
X1227Y1454D01*
X1268Y1454D02*
X1317Y1454D01*
X1778Y1454D02*
X1827Y1454D01*
X1868Y1454D02*
X1917Y1454D01*
X1178Y1453D02*
X1227Y1453D01*
X1267Y1453D02*
X1317Y1453D01*
X1778Y1453D02*
X1827Y1453D01*
X1867Y1453D02*
X1917Y1453D01*
X1178Y1452D02*
X1228Y1452D01*
X1266Y1452D02*
X1317Y1452D01*
X1778Y1452D02*
X1828Y1452D01*
X1866Y1452D02*
X1917Y1452D01*
X1178Y1451D02*
X1229Y1451D01*
X1265Y1451D02*
X1317Y1451D01*
X1778Y1451D02*
X1829Y1451D01*
X1865Y1451D02*
X1917Y1451D01*
X1178Y1450D02*
X1230Y1450D01*
X1264Y1450D02*
X1317Y1450D01*
X1778Y1450D02*
X1830Y1450D01*
X1864Y1450D02*
X1917Y1450D01*
X1178Y1449D02*
X1231Y1449D01*
X1263Y1449D02*
X1317Y1449D01*
X1778Y1449D02*
X1831Y1449D01*
X1863Y1449D02*
X1917Y1449D01*
X1178Y1448D02*
X1232Y1448D01*
X1262Y1448D02*
X1317Y1448D01*
X1778Y1448D02*
X1832Y1448D01*
X1862Y1448D02*
X1917Y1448D01*
X1178Y1447D02*
X1234Y1447D01*
X1260Y1447D02*
X1317Y1447D01*
X1778Y1447D02*
X1834Y1447D01*
X1860Y1447D02*
X1917Y1447D01*
X1178Y1446D02*
X1235Y1446D01*
X1259Y1446D02*
X1317Y1446D01*
X1778Y1446D02*
X1835Y1446D01*
X1859Y1446D02*
X1917Y1446D01*
X1178Y1445D02*
X1237Y1445D01*
X1257Y1445D02*
X1317Y1445D01*
X1778Y1445D02*
X1837Y1445D01*
X1857Y1445D02*
X1917Y1445D01*
X1178Y1444D02*
X1240Y1444D01*
X1254Y1444D02*
X1317Y1444D01*
X1778Y1444D02*
X1840Y1444D01*
X1854Y1444D02*
X1917Y1444D01*
X1178Y1443D02*
X1317Y1443D01*
X1778Y1443D02*
X1917Y1443D01*
X1178Y1442D02*
X1317Y1442D01*
X1778Y1442D02*
X1917Y1442D01*
X1178Y1441D02*
X1317Y1441D01*
X1778Y1441D02*
X1917Y1441D01*
X1178Y1440D02*
X1317Y1440D01*
X1778Y1440D02*
X1917Y1440D01*
X1178Y1439D02*
X1317Y1439D01*
X1778Y1439D02*
X1917Y1439D01*
X1178Y1438D02*
X1317Y1438D01*
X1778Y1438D02*
X1917Y1438D01*
X1178Y1437D02*
X1317Y1437D01*
X1778Y1437D02*
X1917Y1437D01*
X1178Y1436D02*
X1317Y1436D01*
X1778Y1436D02*
X1917Y1436D01*
X1178Y1435D02*
X1317Y1435D01*
X1778Y1435D02*
X1917Y1435D01*
X1178Y1434D02*
X1317Y1434D01*
X1778Y1434D02*
X1917Y1434D01*
X1243Y1433D02*
X1252Y1433D01*
X1843Y1433D02*
X1852Y1433D01*
X1243Y1401D02*
X1251Y1401D01*
X1843Y1401D02*
X1851Y1401D01*
X1237Y1400D02*
X1258Y1400D01*
X1837Y1400D02*
X1858Y1400D01*
X1178Y1399D02*
X1317Y1399D01*
X1778Y1399D02*
X1917Y1399D01*
X1178Y1398D02*
X1317Y1398D01*
X1778Y1398D02*
X1917Y1398D01*
X1178Y1397D02*
X1317Y1397D01*
X1778Y1397D02*
X1917Y1397D01*
X1178Y1396D02*
X1317Y1396D01*
X1778Y1396D02*
X1917Y1396D01*
X1178Y1395D02*
X1317Y1395D01*
X1778Y1395D02*
X1917Y1395D01*
X1178Y1394D02*
X1317Y1394D01*
X1778Y1394D02*
X1917Y1394D01*
X1178Y1393D02*
X1317Y1393D01*
X1778Y1393D02*
X1917Y1393D01*
X1178Y1392D02*
X1317Y1392D01*
X1778Y1392D02*
X1917Y1392D01*
X1178Y1391D02*
X1317Y1391D01*
X1778Y1391D02*
X1917Y1391D01*
X1178Y1390D02*
X1317Y1390D01*
X1778Y1390D02*
X1917Y1390D01*
X1178Y1389D02*
X1237Y1389D01*
X1258Y1389D02*
X1317Y1389D01*
X1778Y1389D02*
X1837Y1389D01*
X1858Y1389D02*
X1917Y1389D01*
X1178Y1388D02*
X1235Y1388D01*
X1260Y1388D02*
X1317Y1388D01*
X1778Y1388D02*
X1835Y1388D01*
X1860Y1388D02*
X1917Y1388D01*
X1178Y1387D02*
X1233Y1387D01*
X1262Y1387D02*
X1317Y1387D01*
X1778Y1387D02*
X1833Y1387D01*
X1862Y1387D02*
X1917Y1387D01*
X1178Y1386D02*
X1232Y1386D01*
X1263Y1386D02*
X1317Y1386D01*
X1778Y1386D02*
X1832Y1386D01*
X1863Y1386D02*
X1917Y1386D01*
X1178Y1385D02*
X1231Y1385D01*
X1264Y1385D02*
X1317Y1385D01*
X1778Y1385D02*
X1831Y1385D01*
X1864Y1385D02*
X1917Y1385D01*
X1178Y1384D02*
X1230Y1384D01*
X1265Y1384D02*
X1317Y1384D01*
X1778Y1384D02*
X1830Y1384D01*
X1865Y1384D02*
X1917Y1384D01*
X1178Y1383D02*
X1229Y1383D01*
X1266Y1383D02*
X1317Y1383D01*
X1778Y1383D02*
X1829Y1383D01*
X1866Y1383D02*
X1917Y1383D01*
X1178Y1382D02*
X1228Y1382D01*
X1267Y1382D02*
X1317Y1382D01*
X1778Y1382D02*
X1828Y1382D01*
X1867Y1382D02*
X1917Y1382D01*
X1178Y1381D02*
X1227Y1381D01*
X1268Y1381D02*
X1317Y1381D01*
X1778Y1381D02*
X1827Y1381D01*
X1868Y1381D02*
X1917Y1381D01*
X1178Y1380D02*
X1226Y1380D01*
X1268Y1380D02*
X1317Y1380D01*
X1778Y1380D02*
X1826Y1380D01*
X1868Y1380D02*
X1917Y1380D01*
X1178Y1379D02*
X1226Y1379D01*
X1269Y1379D02*
X1317Y1379D01*
X1778Y1379D02*
X1826Y1379D01*
X1869Y1379D02*
X1917Y1379D01*
X1178Y1378D02*
X1225Y1378D01*
X1269Y1378D02*
X1317Y1378D01*
X1778Y1378D02*
X1825Y1378D01*
X1869Y1378D02*
X1917Y1378D01*
X1178Y1377D02*
X1225Y1377D01*
X1270Y1377D02*
X1317Y1377D01*
X1778Y1377D02*
X1825Y1377D01*
X1870Y1377D02*
X1917Y1377D01*
X1178Y1376D02*
X1224Y1376D01*
X1270Y1376D02*
X1317Y1376D01*
X1778Y1376D02*
X1824Y1376D01*
X1870Y1376D02*
X1917Y1376D01*
X1178Y1375D02*
X1224Y1375D01*
X1271Y1375D02*
X1317Y1375D01*
X1778Y1375D02*
X1824Y1375D01*
X1871Y1375D02*
X1917Y1375D01*
X1178Y1374D02*
X1224Y1374D01*
X1271Y1374D02*
X1317Y1374D01*
X1778Y1374D02*
X1824Y1374D01*
X1871Y1374D02*
X1917Y1374D01*
X1178Y1373D02*
X1223Y1373D01*
X1271Y1373D02*
X1317Y1373D01*
X1778Y1373D02*
X1823Y1373D01*
X1871Y1373D02*
X1917Y1373D01*
X1178Y1372D02*
X1223Y1372D01*
X1272Y1372D02*
X1317Y1372D01*
X1778Y1372D02*
X1823Y1372D01*
X1872Y1372D02*
X1917Y1372D01*
X1178Y1371D02*
X1223Y1371D01*
X1272Y1371D02*
X1317Y1371D01*
X1778Y1371D02*
X1823Y1371D01*
X1872Y1371D02*
X1917Y1371D01*
X1178Y1370D02*
X1223Y1370D01*
X1272Y1370D02*
X1317Y1370D01*
X1778Y1370D02*
X1823Y1370D01*
X1872Y1370D02*
X1917Y1370D01*
X1178Y1369D02*
X1223Y1369D01*
X1272Y1369D02*
X1317Y1369D01*
X1778Y1369D02*
X1823Y1369D01*
X1872Y1369D02*
X1917Y1369D01*
X1178Y1368D02*
X1223Y1368D01*
X1272Y1368D02*
X1317Y1368D01*
X1778Y1368D02*
X1823Y1368D01*
X1872Y1368D02*
X1917Y1368D01*
X1178Y1367D02*
X1223Y1367D01*
X1272Y1367D02*
X1317Y1367D01*
X1778Y1367D02*
X1823Y1367D01*
X1872Y1367D02*
X1917Y1367D01*
X1178Y1366D02*
X1223Y1366D01*
X1272Y1366D02*
X1317Y1366D01*
X1778Y1366D02*
X1823Y1366D01*
X1872Y1366D02*
X1917Y1366D01*
X1178Y1365D02*
X1223Y1365D01*
X1272Y1365D02*
X1317Y1365D01*
X1778Y1365D02*
X1823Y1365D01*
X1872Y1365D02*
X1917Y1365D01*
X1178Y1364D02*
X1223Y1364D01*
X1272Y1364D02*
X1317Y1364D01*
X1778Y1364D02*
X1823Y1364D01*
X1872Y1364D02*
X1917Y1364D01*
X1178Y1363D02*
X1223Y1363D01*
X1272Y1363D02*
X1317Y1363D01*
X1778Y1363D02*
X1823Y1363D01*
X1872Y1363D02*
X1917Y1363D01*
X1178Y1362D02*
X1223Y1362D01*
X1271Y1362D02*
X1317Y1362D01*
X1778Y1362D02*
X1823Y1362D01*
X1871Y1362D02*
X1917Y1362D01*
X1178Y1361D02*
X1224Y1361D01*
X1271Y1361D02*
X1317Y1361D01*
X1778Y1361D02*
X1824Y1361D01*
X1871Y1361D02*
X1917Y1361D01*
X1178Y1360D02*
X1224Y1360D01*
X1271Y1360D02*
X1317Y1360D01*
X1778Y1360D02*
X1824Y1360D01*
X1871Y1360D02*
X1917Y1360D01*
X1178Y1359D02*
X1224Y1359D01*
X1270Y1359D02*
X1317Y1359D01*
X1778Y1359D02*
X1824Y1359D01*
X1870Y1359D02*
X1917Y1359D01*
X1178Y1358D02*
X1225Y1358D01*
X1270Y1358D02*
X1317Y1358D01*
X1778Y1358D02*
X1824Y1358D01*
X1870Y1358D02*
X1917Y1358D01*
X1178Y1357D02*
X1225Y1357D01*
X1269Y1357D02*
X1317Y1357D01*
X1778Y1357D02*
X1825Y1357D01*
X1869Y1357D02*
X1917Y1357D01*
X1178Y1356D02*
X1226Y1356D01*
X1269Y1356D02*
X1317Y1356D01*
X1778Y1356D02*
X1826Y1356D01*
X1869Y1356D02*
X1917Y1356D01*
X1178Y1355D02*
X1226Y1355D01*
X1268Y1355D02*
X1317Y1355D01*
X1778Y1355D02*
X1826Y1355D01*
X1868Y1355D02*
X1917Y1355D01*
X1178Y1354D02*
X1227Y1354D01*
X1268Y1354D02*
X1317Y1354D01*
X1778Y1354D02*
X1827Y1354D01*
X1868Y1354D02*
X1917Y1354D01*
X1178Y1353D02*
X1227Y1353D01*
X1267Y1353D02*
X1317Y1353D01*
X1778Y1353D02*
X1827Y1353D01*
X1867Y1353D02*
X1917Y1353D01*
X1178Y1352D02*
X1228Y1352D01*
X1266Y1352D02*
X1317Y1352D01*
X1778Y1352D02*
X1828Y1352D01*
X1866Y1352D02*
X1917Y1352D01*
X1178Y1351D02*
X1229Y1351D01*
X1265Y1351D02*
X1317Y1351D01*
X1778Y1351D02*
X1829Y1351D01*
X1865Y1351D02*
X1917Y1351D01*
X1178Y1350D02*
X1230Y1350D01*
X1264Y1350D02*
X1317Y1350D01*
X1778Y1350D02*
X1830Y1350D01*
X1864Y1350D02*
X1917Y1350D01*
X1178Y1349D02*
X1231Y1349D01*
X1263Y1349D02*
X1317Y1349D01*
X1778Y1349D02*
X1831Y1349D01*
X1863Y1349D02*
X1917Y1349D01*
X1178Y1348D02*
X1232Y1348D01*
X1262Y1348D02*
X1317Y1348D01*
X1778Y1348D02*
X1832Y1348D01*
X1862Y1348D02*
X1917Y1348D01*
X1178Y1347D02*
X1234Y1347D01*
X1260Y1347D02*
X1317Y1347D01*
X1778Y1347D02*
X1834Y1347D01*
X1860Y1347D02*
X1917Y1347D01*
X1178Y1346D02*
X1235Y1346D01*
X1259Y1346D02*
X1317Y1346D01*
X1778Y1346D02*
X1835Y1346D01*
X1859Y1346D02*
X1917Y1346D01*
X1178Y1345D02*
X1237Y1345D01*
X1257Y1345D02*
X1317Y1345D01*
X1778Y1345D02*
X1837Y1345D01*
X1857Y1345D02*
X1917Y1345D01*
X1178Y1344D02*
X1240Y1344D01*
X1254Y1344D02*
X1317Y1344D01*
X1778Y1344D02*
X1840Y1344D01*
X1854Y1344D02*
X1917Y1344D01*
X1178Y1343D02*
X1317Y1343D01*
X1778Y1343D02*
X1917Y1343D01*
X1178Y1342D02*
X1317Y1342D01*
X1778Y1342D02*
X1917Y1342D01*
X1178Y1341D02*
X1317Y1341D01*
X1778Y1341D02*
X1917Y1341D01*
X1178Y1340D02*
X1317Y1340D01*
X1778Y1340D02*
X1917Y1340D01*
X1178Y1339D02*
X1317Y1339D01*
X1778Y1339D02*
X1917Y1339D01*
X1178Y1338D02*
X1317Y1338D01*
X1778Y1338D02*
X1917Y1338D01*
X1178Y1337D02*
X1317Y1337D01*
X1778Y1337D02*
X1917Y1337D01*
X1178Y1336D02*
X1317Y1336D01*
X1778Y1336D02*
X1917Y1336D01*
X1178Y1335D02*
X1317Y1335D01*
X1778Y1335D02*
X1917Y1335D01*
X1178Y1334D02*
X1317Y1334D01*
X1778Y1334D02*
X1917Y1334D01*
X1243Y1333D02*
X1251Y1333D01*
X1843Y1333D02*
X1851Y1333D01*
X1243Y1301D02*
X1251Y1301D01*
X1843Y1301D02*
X1851Y1301D01*
X1237Y1300D02*
X1258Y1300D01*
X1837Y1300D02*
X1858Y1300D01*
X1178Y1299D02*
X1317Y1299D01*
X1778Y1299D02*
X1917Y1299D01*
X1178Y1298D02*
X1317Y1298D01*
X1778Y1298D02*
X1917Y1298D01*
X1178Y1297D02*
X1317Y1297D01*
X1778Y1297D02*
X1917Y1297D01*
X1178Y1296D02*
X1317Y1296D01*
X1778Y1296D02*
X1917Y1296D01*
X1178Y1295D02*
X1317Y1295D01*
X1778Y1295D02*
X1917Y1295D01*
X1178Y1294D02*
X1317Y1294D01*
X1778Y1294D02*
X1917Y1294D01*
X1178Y1293D02*
X1317Y1293D01*
X1778Y1293D02*
X1917Y1293D01*
X1178Y1292D02*
X1317Y1292D01*
X1778Y1292D02*
X1917Y1292D01*
X1178Y1291D02*
X1317Y1291D01*
X1778Y1291D02*
X1917Y1291D01*
X1178Y1290D02*
X1317Y1290D01*
X1778Y1290D02*
X1917Y1290D01*
X1178Y1289D02*
X1237Y1289D01*
X1258Y1289D02*
X1317Y1289D01*
X1778Y1289D02*
X1837Y1289D01*
X1858Y1289D02*
X1917Y1289D01*
X1178Y1288D02*
X1235Y1288D01*
X1260Y1288D02*
X1317Y1288D01*
X1778Y1288D02*
X1835Y1288D01*
X1860Y1288D02*
X1917Y1288D01*
X1178Y1287D02*
X1233Y1287D01*
X1262Y1287D02*
X1317Y1287D01*
X1778Y1287D02*
X1833Y1287D01*
X1862Y1287D02*
X1917Y1287D01*
X1178Y1286D02*
X1232Y1286D01*
X1263Y1286D02*
X1317Y1286D01*
X1778Y1286D02*
X1832Y1286D01*
X1863Y1286D02*
X1917Y1286D01*
X1178Y1285D02*
X1231Y1285D01*
X1264Y1285D02*
X1317Y1285D01*
X1778Y1285D02*
X1831Y1285D01*
X1864Y1285D02*
X1917Y1285D01*
X1178Y1284D02*
X1230Y1284D01*
X1265Y1284D02*
X1317Y1284D01*
X1778Y1284D02*
X1830Y1284D01*
X1865Y1284D02*
X1917Y1284D01*
X1178Y1283D02*
X1229Y1283D01*
X1266Y1283D02*
X1317Y1283D01*
X1778Y1283D02*
X1829Y1283D01*
X1866Y1283D02*
X1917Y1283D01*
X1178Y1282D02*
X1228Y1282D01*
X1267Y1282D02*
X1317Y1282D01*
X1778Y1282D02*
X1828Y1282D01*
X1867Y1282D02*
X1917Y1282D01*
X1178Y1281D02*
X1227Y1281D01*
X1268Y1281D02*
X1317Y1281D01*
X1778Y1281D02*
X1827Y1281D01*
X1868Y1281D02*
X1917Y1281D01*
X1178Y1280D02*
X1226Y1280D01*
X1268Y1280D02*
X1317Y1280D01*
X1778Y1280D02*
X1826Y1280D01*
X1868Y1280D02*
X1917Y1280D01*
X1178Y1279D02*
X1226Y1279D01*
X1269Y1279D02*
X1317Y1279D01*
X1778Y1279D02*
X1826Y1279D01*
X1869Y1279D02*
X1917Y1279D01*
X1178Y1278D02*
X1225Y1278D01*
X1269Y1278D02*
X1317Y1278D01*
X1778Y1278D02*
X1825Y1278D01*
X1869Y1278D02*
X1917Y1278D01*
X1178Y1277D02*
X1225Y1277D01*
X1270Y1277D02*
X1317Y1277D01*
X1778Y1277D02*
X1825Y1277D01*
X1870Y1277D02*
X1917Y1277D01*
X1178Y1276D02*
X1224Y1276D01*
X1270Y1276D02*
X1317Y1276D01*
X1778Y1276D02*
X1824Y1276D01*
X1870Y1276D02*
X1917Y1276D01*
X1178Y1275D02*
X1224Y1275D01*
X1271Y1275D02*
X1317Y1275D01*
X1778Y1275D02*
X1824Y1275D01*
X1871Y1275D02*
X1917Y1275D01*
X1178Y1274D02*
X1224Y1274D01*
X1271Y1274D02*
X1317Y1274D01*
X1778Y1274D02*
X1824Y1274D01*
X1871Y1274D02*
X1917Y1274D01*
X1178Y1273D02*
X1223Y1273D01*
X1271Y1273D02*
X1317Y1273D01*
X1778Y1273D02*
X1823Y1273D01*
X1871Y1273D02*
X1917Y1273D01*
X1178Y1272D02*
X1223Y1272D01*
X1272Y1272D02*
X1317Y1272D01*
X1778Y1272D02*
X1823Y1272D01*
X1872Y1272D02*
X1917Y1272D01*
X1178Y1271D02*
X1223Y1271D01*
X1272Y1271D02*
X1317Y1271D01*
X1778Y1271D02*
X1823Y1271D01*
X1872Y1271D02*
X1917Y1271D01*
X1178Y1270D02*
X1223Y1270D01*
X1272Y1270D02*
X1317Y1270D01*
X1778Y1270D02*
X1823Y1270D01*
X1872Y1270D02*
X1917Y1270D01*
X1178Y1269D02*
X1223Y1269D01*
X1272Y1269D02*
X1317Y1269D01*
X1778Y1269D02*
X1823Y1269D01*
X1872Y1269D02*
X1917Y1269D01*
X1178Y1268D02*
X1223Y1268D01*
X1272Y1268D02*
X1317Y1268D01*
X1778Y1268D02*
X1823Y1268D01*
X1872Y1268D02*
X1917Y1268D01*
X1178Y1267D02*
X1223Y1267D01*
X1272Y1267D02*
X1317Y1267D01*
X1778Y1267D02*
X1823Y1267D01*
X1872Y1267D02*
X1917Y1267D01*
X1178Y1266D02*
X1223Y1266D01*
X1272Y1266D02*
X1317Y1266D01*
X1778Y1266D02*
X1823Y1266D01*
X1872Y1266D02*
X1917Y1266D01*
X1178Y1265D02*
X1223Y1265D01*
X1272Y1265D02*
X1317Y1265D01*
X1778Y1265D02*
X1823Y1265D01*
X1872Y1265D02*
X1917Y1265D01*
X1178Y1264D02*
X1223Y1264D01*
X1272Y1264D02*
X1317Y1264D01*
X1778Y1264D02*
X1823Y1264D01*
X1872Y1264D02*
X1917Y1264D01*
X1178Y1263D02*
X1223Y1263D01*
X1272Y1263D02*
X1317Y1263D01*
X1778Y1263D02*
X1823Y1263D01*
X1872Y1263D02*
X1917Y1263D01*
X1178Y1262D02*
X1223Y1262D01*
X1271Y1262D02*
X1317Y1262D01*
X1778Y1262D02*
X1823Y1262D01*
X1871Y1262D02*
X1917Y1262D01*
X1178Y1261D02*
X1224Y1261D01*
X1271Y1261D02*
X1317Y1261D01*
X1778Y1261D02*
X1824Y1261D01*
X1871Y1261D02*
X1917Y1261D01*
X1178Y1260D02*
X1224Y1260D01*
X1271Y1260D02*
X1317Y1260D01*
X1778Y1260D02*
X1824Y1260D01*
X1871Y1260D02*
X1917Y1260D01*
X1178Y1259D02*
X1224Y1259D01*
X1270Y1259D02*
X1317Y1259D01*
X1778Y1259D02*
X1824Y1259D01*
X1870Y1259D02*
X1917Y1259D01*
X1178Y1258D02*
X1225Y1258D01*
X1270Y1258D02*
X1317Y1258D01*
X1778Y1258D02*
X1824Y1258D01*
X1870Y1258D02*
X1917Y1258D01*
X1178Y1257D02*
X1225Y1257D01*
X1269Y1257D02*
X1317Y1257D01*
X1778Y1257D02*
X1825Y1257D01*
X1869Y1257D02*
X1917Y1257D01*
X1178Y1256D02*
X1226Y1256D01*
X1269Y1256D02*
X1317Y1256D01*
X1778Y1256D02*
X1826Y1256D01*
X1869Y1256D02*
X1917Y1256D01*
X1178Y1255D02*
X1226Y1255D01*
X1268Y1255D02*
X1317Y1255D01*
X1778Y1255D02*
X1826Y1255D01*
X1868Y1255D02*
X1917Y1255D01*
X1178Y1254D02*
X1227Y1254D01*
X1268Y1254D02*
X1317Y1254D01*
X1778Y1254D02*
X1827Y1254D01*
X1868Y1254D02*
X1917Y1254D01*
X1178Y1253D02*
X1228Y1253D01*
X1267Y1253D02*
X1317Y1253D01*
X1778Y1253D02*
X1827Y1253D01*
X1867Y1253D02*
X1917Y1253D01*
X1178Y1252D02*
X1228Y1252D01*
X1266Y1252D02*
X1317Y1252D01*
X1778Y1252D02*
X1828Y1252D01*
X1866Y1252D02*
X1917Y1252D01*
X1178Y1251D02*
X1229Y1251D01*
X1265Y1251D02*
X1317Y1251D01*
X1778Y1251D02*
X1829Y1251D01*
X1865Y1251D02*
X1917Y1251D01*
X1178Y1250D02*
X1230Y1250D01*
X1264Y1250D02*
X1317Y1250D01*
X1778Y1250D02*
X1830Y1250D01*
X1864Y1250D02*
X1917Y1250D01*
X1178Y1249D02*
X1231Y1249D01*
X1263Y1249D02*
X1317Y1249D01*
X1778Y1249D02*
X1831Y1249D01*
X1863Y1249D02*
X1917Y1249D01*
X1178Y1248D02*
X1232Y1248D01*
X1262Y1248D02*
X1317Y1248D01*
X1778Y1248D02*
X1832Y1248D01*
X1862Y1248D02*
X1917Y1248D01*
X1178Y1247D02*
X1234Y1247D01*
X1260Y1247D02*
X1317Y1247D01*
X1778Y1247D02*
X1834Y1247D01*
X1860Y1247D02*
X1917Y1247D01*
X1178Y1246D02*
X1235Y1246D01*
X1259Y1246D02*
X1317Y1246D01*
X1778Y1246D02*
X1835Y1246D01*
X1859Y1246D02*
X1917Y1246D01*
X1178Y1245D02*
X1237Y1245D01*
X1257Y1245D02*
X1317Y1245D01*
X1778Y1245D02*
X1837Y1245D01*
X1857Y1245D02*
X1917Y1245D01*
X1178Y1244D02*
X1240Y1244D01*
X1254Y1244D02*
X1317Y1244D01*
X1778Y1244D02*
X1840Y1244D01*
X1854Y1244D02*
X1917Y1244D01*
X1178Y1243D02*
X1317Y1243D01*
X1778Y1243D02*
X1917Y1243D01*
X1178Y1242D02*
X1317Y1242D01*
X1778Y1242D02*
X1917Y1242D01*
X1178Y1241D02*
X1317Y1241D01*
X1778Y1241D02*
X1917Y1241D01*
X1178Y1240D02*
X1317Y1240D01*
X1778Y1240D02*
X1917Y1240D01*
X1178Y1239D02*
X1317Y1239D01*
X1778Y1239D02*
X1917Y1239D01*
X1178Y1238D02*
X1317Y1238D01*
X1778Y1238D02*
X1917Y1238D01*
X1178Y1237D02*
X1317Y1237D01*
X1778Y1237D02*
X1917Y1237D01*
X1178Y1236D02*
X1317Y1236D01*
X1778Y1236D02*
X1917Y1236D01*
X1178Y1235D02*
X1317Y1235D01*
X1778Y1235D02*
X1917Y1235D01*
X1178Y1234D02*
X1317Y1234D01*
X1778Y1234D02*
X1917Y1234D01*
X1243Y1233D02*
X1251Y1233D01*
X1843Y1233D02*
X1851Y1233D01*
D02*
G04 End of Mask1*
M02*