; NON-PLATED HOLES START AT T1
; THROUGH (PLATED) HOLES START AT T100
M48
INCH
T100C0.036000
T101C0.039370
T102C0.041333
T103C0.033944
T104C0.040000
%
T100
X006479Y003668
X010479Y009668
X007479Y009668
X015479Y003668
X006479Y009668
X017479Y003668
X014479Y009668
X008479Y003668
X018479Y009668
X010479Y003668
X016479Y009668
X014479Y003668
X011479Y003668
X009479Y009668
X015479Y009668
X019479Y003668
X008479Y009668
X012479Y009668
X007479Y003668
X017479Y009668
X019479Y009668
X012479Y003668
X013479Y009668
X018479Y003668
X009479Y003668
X013479Y003668
X005479Y003668
X005479Y009668
X016479Y003668
X011479Y009668
T101
X011479Y001668
X002479Y006668
X015479Y001668
X002479Y007668
X002479Y009668
X002479Y005668
X014479Y001668
X012479Y001668
X013479Y001668
X002479Y008668
T102
X018479Y015668
X012479Y019668
X012479Y013668
X012479Y015668
X018479Y017668
X018479Y014668
X012479Y017668
X012479Y016668
X018479Y013668
X018479Y018668
X018479Y016668
X018479Y019668
X012479Y012668
X012479Y014668
X018479Y012668
X012479Y018668
T103
X002479Y013668
X003479Y013668
X005479Y012668
X004479Y012668
X004479Y013668
X002479Y012668
X003479Y012668
X005479Y013668
T104
X022479Y015668
X022479Y017668
X022479Y018668
X022479Y021668
X022479Y002668
X022479Y020668
X022479Y001668
X022479Y016668
T00
M30
